<?xml version="1.0" encoding="utf-8"?>
<!-- Generator: Adobe Illustrator 27.6.1, SVG Export Plug-In . SVG Version: 6.00 Build 0)  -->
<svg version="1.1" xmlns="http://www.w3.org/2000/svg" xmlns:xlink="http://www.w3.org/1999/xlink" x="0px" y="0px"
	 viewBox="0 0 199.6 38.6" style="enable-background:new 0 0 199.6 38.6;" xml:space="preserve">
<style type="text/css">
	.st0{fill:#F6F6F6;}
	.st1{fill:#FFFFFF;}
	.st2{fill:#EF1414;}
	.st3{fill:#F6F6F6;stroke:#000000;stroke-width:0.75;stroke-miterlimit:10;}
	.st4{fill:none;stroke:#000000;stroke-width:0.75;stroke-miterlimit:10;}
</style>
<g id="Layer_2">
	<path d="M35.3-11.2c-12.1,0.2-24.1,0.8-36.2,1.7c-7.7,0.6-7.7,12.6,0,12c12-0.9,24.1-1.5,36.2-1.7C43,0.7,43.1-11.3,35.3-11.2z"/>
	<path class="st0" d="M266.8-13c0.1-0.5,0.2-1.1,0.2-1.6c1-6.3-0.3-11.7-2.7-17.5c-5.2-12.6-15-18.8-28.4-20.1
		c-4.8-0.4-9.6-0.1-14.3-0.8c-5.2-0.7-10.4-2.2-15.4-3.6c-11.3-3-22.7-6-34-9.1c-7.7-2-13.2,2.5-15.3,8.3
		c-28.5-1.9-57.1-4.2-85.6-4.5c-15.9-0.2-32.2,0-48.1,1.6c-4.8,0.5-9.4,1.9-12.8,5.4C7.8-52.3,6.1-49,4-46.1
		C0-40.9-4.8-36.1-9.8-31.8c-3.9,3.3-4.6,9.8-2.7,14.2c0.7,1.5,1.5,2.8,2.5,3.8c-2.7,4.1-3.9,8.7-1.4,13.4c0.9,1.7,2.8,2.8,4.7,3
		c0.4,0.1,0.9,0.2,1.4,0.2C9.5,3.6,24.2,1.2,38.9,1c0.7,0.3,1.5,0.4,2.4,0.4c6.3-0.2,12,0.8,18.2,1.7C65.4,4,71.2,3.2,77.1,2.3
		c0.7-0.1,1.3-0.3,1.8-0.5C81.6,1.9,84.3,2,86.9,2c7.8,2.2,17.3,0.2,25.2-0.3c9.6-0.5,19.1-0.3,28.7,0.3c9.7,0.6,19.3,0.5,29-0.3
		c7.8-0.6,15.6-1.3,23.4-1.2c1.8,0.2,3.6,0.3,5.4,0.2c2.1-0.1,3.6-0.9,4.5-2.1c2.9,0,5.8,0,8.6,0c1,1.7,2.2,3.3,3.9,4.8
		c5.7,4.8,13.8,6.3,21.1,6.4c2.2,0,4.4-0.2,6.6-0.4c3.2,4.2,9.5,6.7,14.2,4.9c6.5-2.5,11.8-6.6,13.4-13.8
		C272.4-4.9,270.4-9.7,266.8-13z"/>
	<path class="st0" d="M269.8,36.6c0.9-5.8-0.6-11.5-6-14.7c-4.8-2.8-11.9-2.2-15.8,2c-6.7,7.5-13.7,8.4-23.6,6.7
		c-6.8-1.1-14.7,2.3-16.2,9.3c-1-0.7-2.1-1.2-3.3-1.7c-1.3-0.6-2.8-0.8-4.3-0.8c-1.2-2.1-3.5-3.6-6.6-2.7c-4,1.1-8.1,2.5-12.3,3.7
		c-0.7-0.3-1.5-0.5-2.4-0.5c-12.6-0.1-25.1,0.5-37.5,1.9c-2.8-2.5-6.7-3.8-11.4-2.6c-9.3,2.3-19.3,0.4-28.8,1.1
		c-11,0.8-21.8,1.4-32.9,0.9c-10.4-0.6-21.1-1.3-31.4-3C25.8,34.1,14.8,31.2,3,34c-6.7,1.6-10.7,9.1-9.2,15.6
		c-0.6,3-0.2,6.2,1.5,8.9c0.6,1,1.3,1.9,2,2.8c-2.6,4-3.1,9.4-0.4,13.5c5.5,8.4,9,17.2,18.2,22.4c9,5,19.4,5.8,29.5,4.6
		c20.5-2.4,40.8-5.1,61.5-5.8c9.4-0.3,18.8-0.4,28.2-0.4c1.8,2.3,4,4.3,6.5,5.8c11.8,7.1,24.2,1.5,36.5-0.4c2.8-0.4,5.1-2.1,6.7-4.4
		c1.8,0,3.6-0.1,5.4-0.2c2.4,2.7,5.7,4.6,9.4,4.1c2.3-0.3,4.8-0.6,7.2-1c2.8-0.2,6.2-0.2,9-0.7c4.6-0.7,9-1.9,13.6-2.9
		c9.6-2.2,20.3,2.7,28.3-6.1c3.4-3.7,5-8.7,7-12.7c0.5-0.9,1-1.8,1.6-2.7c0.1-0.1,0.1-0.2,0.2-0.3c0.2-0.3,0.5-0.6,0.9-1.1
		c1.6-2,2.7-3.9,3.7-6.3C274.3,56.9,268.2,46.8,269.8,36.6z"/>
</g>
<g id="Layer_1">
	<g id="Layer_2_00000094575616235605599810000012022741464735604384_">
		<path d="M108.7,26c0-0.1-0.1-0.2-0.2-0.3c-0.1-0.1-0.2-0.2-0.3-0.3c-0.1,0-0.2-0.1-0.2-0.1c-0.2,0-0.4,0-0.5,0s-0.2,0.1-0.2,0.1
			c-0.2,0.1-0.3,0.2-0.4,0.4c-0.2,0.2-0.3,0.5-0.4,0.7c-0.1,0.1-0.1,0.2-0.1,0.4c0,0.1,0,0.3,0,0.4s0.1,0.2,0.2,0.3
			c0.1,0.1,0.2,0.2,0.3,0.3c0.1,0,0.2,0.1,0.2,0.1c0.2,0,0.4,0,0.5,0s0.2-0.1,0.2-0.1c0.2-0.1,0.3-0.2,0.4-0.4
			c0.1-0.2,0.3-0.5,0.4-0.7c0.1-0.1,0.1-0.2,0.1-0.4S108.7,26.1,108.7,26z"/>
		<path class="st0" d="M113.5,14.6c0-0.4-0.1-0.7-0.4-1.1c-0.2-0.3-0.5-0.5-0.7-0.7c-0.1-0.1-0.2-0.1-0.3-0.1l0,0c0,0,0-0.1-0.1-0.1
			c-0.1-0.3-0.2-0.5-0.4-0.7c-0.1-0.1-0.4-0.2-0.5-0.1c0,0,0,0-0.1-0.1c-0.4-0.5-1.1,0.2-0.7,0.7c0.1,0.1,0.2,0.2,0.3,0.3
			c0,0.1-0.1,0.1-0.1,0.2c-0.1,0.2-0.1,0.4,0.1,0.6l0,0c0,0.1,0,0.1,0,0.2l0,0l0,0v0.1c0,0.1,0,0.3,0,0.4c0,0.1,0.1,0.2,0.1,0.3
			s0.1,0.1,0.1,0.2l0,0c-0.1,0.7-0.3,1.4-0.5,2.1c-0.3,1.4-0.7,2.8-1.2,4.2c0,0.1,0,0.1,0,0.1c-0.2,0.3-0.3,0.6-0.5,0.9
			c-0.3,0.5-0.8,0.9-1,1.4c-0.2,0.4-0.1,0.9-0.4,1.2c-0.2,0.2-0.2,0.4-0.1,0.6c-0.1,0.1-0.2,0.2-0.2,0.3c-0.2,0.2-0.3,0.4-0.4,0.7
			c-0.1,0.1-0.1,0.2-0.1,0.4c0,0.1,0,0.3,0,0.4s0.1,0.2,0.1,0.3c0,0.2,0.1,0.4,0.3,0.5c0.2,0.2,0.4,0.3,0.7,0.3
			c0.3,0,0.5-0.1,0.7-0.3c0.2-0.2,0.4-0.5,0.6-0.8c0.2,0.1,0.4,0,0.6-0.1c0.3-0.2,0.4-0.5,0.6-0.8s0.3-0.6,0.5-0.9
			c0.3-0.6,0.6-1.3,0.5-1.9c0.1,0,0.1-0.1,0.2-0.2c0.2-0.3,0.2-0.7,0.3-1.1c0.1-0.5,0.3-0.9,0.4-1.4c0.3-0.9,0.6-1.8,0.8-2.7
			c0-0.1,0-0.2,0-0.3v-0.1c0.3-0.7,0.5-1.5,0.6-2.2C113.7,15.3,113.7,14.8,113.5,14.6z"/>
		<path class="st0" d="M104.9,19.5c-0.2-0.1-0.3-0.2-0.5-0.2c-0.4-0.5-0.7-1.1-1-1.7c0-0.1,0-0.2-0.1-0.4c-0.1-0.5-0.2-1-0.4-1.5
			c-0.1-0.4-0.2-0.9-0.6-1.2c-0.2-0.1-0.4-0.2-0.5-0.1c0-0.1,0-0.1,0-0.2c-0.1-0.3-0.3-0.4-0.6-0.3c-0.2,0.1-0.4,0.4-0.3,0.6
			c0.3,0.8,0.2,1.5,0.2,2.3c0,0.9,0.1,1.7,0.3,2.5c0.1,0.2,0.2,0.3,0.4,0.3c0.1,1.1,0.1,2.1,0.2,3.2c-0.1,0.2-0.1,0.4,0,0.7
			c0,0.1,0,0.3,0,0.4c0,0.4,0.4,0.6,0.8,0.4c0.1-0.1,0.3-0.2,0.4-0.3c0.1,0,0.2,0,0.3-0.1c0.6-0.3,0.9-1,1.1-1.7
			c0.1-0.2,0.2-0.5,0.2-0.7s0.1-0.4,0.1-0.6c0,0,0-0.1,0.1-0.1C105.2,20.5,105.3,19.8,104.9,19.5z"/>
		<path class="st0" d="M95.7,30c-0.7-0.1-1.2-0.5-1.7-0.9c-0.3-0.3-0.6-0.7-0.9-1l0,0c-0.3-0.4-0.5-0.8-0.7-1.3c0-0.2,0-0.3,0-0.5
			l0,0c0-0.4-0.1-0.9-0.3-1.3l0,0c0,0,0,0,0-0.1c0.1-0.3,0-0.6-0.1-0.9c0-0.1,0-0.1,0-0.2c0-0.2-0.2-0.3-0.1-0.5
			c0-0.3,0.1-0.5,0-0.8c-0.1-0.2-0.1-0.3-0.1-0.5c0-0.3-0.1-0.7-0.2-1c0-0.9-0.1-1.7-0.3-2.6c0-0.1-0.1-0.2-0.2-0.3l0,0
			c0-0.4,0.1-0.8,0-1.2c-0.1-0.4-0.5-0.7-0.9-0.6c-0.3,0.1-0.5,0.4-0.8,0.5c0-0.2,0-0.5-0.1-0.7l0,0c-0.1-0.4-0.4-0.8-0.9-0.8
			c-0.4,0-0.7,0.2-0.8,0.5c-0.2,0.2-0.3,0.5-0.2,0.8v0.1v0.1l0,0v0.1c0,0.1,0,0.1-0.1,0.2c-0.1,0.3-0.2,0.6-0.3,0.9
			c-0.1,0-0.2,0.1-0.3,0.2c-0.3,0.5-0.5,1-0.7,1.6c-0.2,0.4-0.4,0.9-0.3,1.4c-0.1,0.3-0.2,0.7-0.3,1c-0.2,0.5-0.3,1-0.5,1.5
			s0.6,0.9,0.9,0.4c0.1-0.3,0.3-0.5,0.6-0.7c0,0.1,0.1,0.3,0.2,0.4l0,0c0,0.1,0,0.1,0,0.2s0,0.3,0,0.4c0,0.3,0,0.6,0,0.9
			c-0.1,0.5-0.2,1-0.5,1.4c-0.2,0.4-0.5,0.7-0.9,0.9c-0.5,0.3-1,0.5-1.5,0.8c-0.2,0.2-0.3,0.4-0.2,0.7c0.1,0.2,0.5,0.3,0.7,0.2
			c0.6-0.4,1.2-0.6,1.8-1c0.2-0.1,0.4-0.3,0.5-0.5c0.1,0.1,0.3,0.1,0.5,0s0.4-0.3,0.6-0.4c0.1,0,0.1,0.1,0.2,0.1c0.3,0,0.7,0,1,0
			s0.5-0.1,0.8,0c0.5,0.2,1,0.7,1.4,1c0.6,0.6,1.1,1.3,1.4,2.1c0,0.1,0,0.1,0,0.2c-0.1,0.4,0.3,0.8,0.7,0.9c0.3,0.1,0.5-0.1,0.6-0.3
			c0.4,0,0.7-0.1,1-0.3c0.3-0.2,0.6-0.4,0.9-0.5C96.1,30.9,96.1,30.1,95.7,30z"/>
		<path class="st0" d="M269.9,2.6c-0.6-2.8-3.2-4.1-5.8-4.4c-9.9-1.3-19.8-2.2-29.8-2.9c-1.1-0.1-2,0.1-2.8,0.5
			C227-6,221.1-5.4,216.7-5c-1.4,0.1-2.5,0.8-3,1.9c-3.4-1.5-8.5-0.9-11.6-1.1c-3.3-0.2-4.2,3.6-2.6,5.7c-0.1,6.4-0.3,12.8-0.4,19.2
			c-0.3,3.5-0.6,7-0.4,10.4c-3.5-0.1-6.9-0.2-10.4-0.2c-5.9,0-11.7,1.1-17.5,2c-7.2,1.2-14.4,1.9-21.6,2.3c1.1-2.5-1-6.4-4.7-5.9
			l-35.8,4.9c-6.3,0.9-12.7,1.9-19,2.6C84.1,37.4,78.6,36.5,73,36c-22.7-2-45.5-1-68.3,0c-0.5-0.3-1-0.6-1.7-0.7
			c-0.9-0.1-1.9-0.2-2.8-0.3c1.3-2.7,1-7.6,0.9-10.2c0-4.5-0.6-8.8-0.4-13.2C0.9,9.2,1.5,5.4,1,2.4c0.1,0,0.1,0,0.2,0
			c4.5,0.3,4.5-6.7,0-7c-12.6-1-25.3-0.2-37.7,2.6c-4.1,0.9-11.6,1.4-13.1,6.2c-0.6,2,0.1,4.2,0.5,6.1c0.7,3.6,1.3,7.2,1.6,10.8
			C-46.9,27-47.9,33.3-47,39c0.8,4.4,4.8,6.1,8.7,7.2c12.1,3.1,26.1,2.1,38.5,2.1c2.4,0,3.7-2.3,3.4-4.3c16.4-0.8,32.8-1.5,49.1-1.1
			c7-0.3,14-0.3,20.9-0.6c9.5-0.4,19-1.5,28.6-2c20.1-1.2,40.4-0.9,60.4,0.5c1.2,0.1,2.3,0.4,3.2,0.9c1.1-0.1,2.2-0.3,3.3-0.4
			c6.1-0.9,12.1-2.3,18.3-2.3c3.6,0,7.2,0,10.8,0.2c0.5,1.1,1.5,1.9,3,2c8.9,0.7,17.9,0.3,26.7-1.3c0.8,1.2,2,2.1,3.2,2.2
			c5.9,0.8,10.8-0.6,16.6-1.7c5.5-1.1,11.3-0.8,16.9-0.9c3.3-0.1,6-2.7,6-6C270.7,23.3,272.1,12.4,269.9,2.6z"/>
		<path class="st0" d="M126.2,8.5c-0.1,0-0.3-0.1-0.4-0.1c0,0-0.1-0.1,0,0h-0.1c-0.1,0-0.1-0.1-0.2-0.1c0,0-0.1-0.1-0.1,0l0,0
			c-0.1,0-0.1-0.1-0.2-0.2c0,0,0-0.1-0.1-0.1l0,0c0-0.1-0.1-0.1-0.1-0.2V7.7l0,0l0,0c0-0.1,0-0.1-0.1-0.2V7.4l0,0c0-0.1,0-0.1,0-0.2
			V7.1c0,0,0,0,0-0.1V6.9V6.8c0-0.2,0.1-0.4,0-0.6c0-0.1-0.1-0.1-0.1-0.2c0.1-0.2,0.2-0.4,0.2-0.7c0-0.3-0.3-0.6-0.6-0.5
			c-0.5,0.1-0.8,0.5-1,0.8c-0.1,0.2-0.3,0.4-0.3,0.6v0.1c0,0,0,0,0,0.1c-0.2,0.3-0.2,0.7-0.2,1.1c0,0.3-0.1,0.7-0.1,1v0.1
			c0,0.1-0.1,0.2-0.1,0.3s0,0.3,0.1,0.4c0.1,0.2,0.2,0.5,0.4,0.7c0.2,0.1,0.3,0.2,0.5,0.2s0.3,0,0.5-0.1c0.1,0,0.1-0.1,0.1-0.1
			c0.2,0,0.4,0,0.5,0c0.4,0,0.8,0,1.2,0.1c0.3,0,0.5-0.2,0.5-0.5V9.5c0.1-0.1,0.1-0.1,0.1-0.2C126.6,8.9,126.4,8.6,126.2,8.5z"/>
		<path class="st0" d="M77.6,15.5c-0.4-0.4-0.8-0.1-1.1,0.2c-0.1,0-0.2,0-0.3,0c-0.6,0.1-0.7,0.6-0.9,1.1c-0.3,0.6-0.8,1-1.1,1.6
			c-0.7,1.1-0.6,2.5-1,3.7c0,0.1,0,0.3,0.1,0.4c0,0.1-0.1,0.2-0.2,0.3c-0.1,0.2-0.1,0.4,0,0.5c-0.1,0.1-0.2,0.1-0.2,0.2
			c-0.3,0.4,0.1,1.1,0.6,0.8l0.1-0.1l0,0c0-0.1,0.1-0.1,0.1-0.2l0.1-0.1c0.1-0.1,0.1-0.1,0.2-0.2c0,0,0.4-0.1,0.3,0.1
			c-0.1,0.6,0.9,0.9,1,0.3c0.1-0.3,0-0.6-0.2-0.9c0,0,0,0,0.1,0c0.6-0.3,0.4-1.1,0.6-1.7c0.3-0.7,0.6-1.4,1-2.1
			c0.3-0.7,0.8-1.4,0.8-2.1c0-0.2,0-0.3,0-0.5s0.1-0.3,0.1-0.5C77.9,16.1,77.8,15.7,77.6,15.5z"/>
	</g>
	<g id="Layer_1_00000060010531497262657840000017415484816955787397_">
		<g id="Layer_1_00000021811531658291410330000008638301567144444091_">
			<g id="Layer_2_00000091695452258931512130000000468262743186891142_">
			</g>
			<g id="XMLID_00000049928876083725790090000015275106128672847014_">
				<g>
					<g id="XMLID_00000025404966147608412880000015863062947097996463_">
						<g>
							<path class="st0" d="M199.9,4.6l0.1,33.7c0,0.1-0.1,0.1-0.1,0.1H91.1v-2.5c2.6,0,5.1-0.8,7.6-2.4c2.3-1.5,4.5-3.4,6.3-5.7
								c0.1-0.1,0.2-0.2,0.3-0.4l0.1-0.1l0.1-0.1c0.2-0.3,0.4-0.6,0.6-0.9l2.6,1.3c0,0.1-0.1,0.1-0.1,0.2c-0.1,0.3,0,0.6,0.3,0.8
								c0.3,0.2,0.8,0.3,1.4,0.3h8.2c0.8,0,1.3-0.1,1.7-0.2c0.3-0.2,0.6-0.4,0.7-0.7c0.1-0.2,0.1-0.3,0-0.4c0-0.2-0.1-0.4-0.2-0.5
								c-0.2-0.2-0.5-0.4-0.7-0.6v-0.1c0-0.1-0.1-0.3-0.1-0.5v-0.1c0.4-0.4,0.5-1.1,0.6-1.6c0-0.4,0.1-0.8,0.2-1.2
								c0-0.2,0-0.3,0.1-0.5v-0.1c0-0.1,0.1-0.1,0.1-0.2c0.1-0.1,0.1-0.2,0.1-0.3c0-0.2,0-0.3,0-0.5l1.4-4.7c0.3-0.6,0.5-1.3,0.7-2
								c0-0.1,0-0.2,0-0.2l0.3-1.1h0.7c0.1,0,0.2,0.1,0.2,0.1c0.5-0.1,1.2,0,1.7-0.2l2.7,0.6c-0.1,0-0.1,0.1-0.1,0.1
								c-0.1,0.1-0.2,0.2-0.3,0.4l0,0c-1.3,1.5-2.1,3.1-2.6,5c0,0.1,0,0.2,0,0.3c-0.2,0.8-0.2,1.6-0.2,2.2c0,0.2,0,0.4,0,0.7
								c0,0.1,0,0.2,0,0.3c0.1,0.8,0.4,1.6,0.7,2.3c0,0.1,0.1,0.2,0.2,0.3c0.4,0.6,0.9,1.2,1.5,1.7c0.1,0.1,0.2,0.1,0.2,0.2
								c0.2,0.2,0.4,0.4,0.8,0.5c0.1,0,0.2,0.1,0.3,0.1c1.5,0.8,3.6,1.2,6.1,1.2c2.1,0,4.1-0.4,5.9-1.2c0.1,0,0.1,0,0.1-0.1
								c0.2-0.1,0.4-0.2,0.5-0.2c0.4-0.2,0.9-0.4,1.2-0.7c0.2-0.1,0.4-0.2,0.5-0.4c0.6-0.4,1.2-0.9,1.7-1.5c0.6-0.4,1.2-1,1.4-1.8
								c0.8-1.2,1.3-2.5,1.7-4h1c-0.2,0.9-0.3,1.8-0.3,2.5c0,2.2,0.8,4,2.3,5.2c0.1,0.6,0.7,0.9,1.3,0.9c0.7,0.4,1.5,0.6,2.4,0.8
								c0.2,0,0.3,0.1,0.5,0.1c0.1,0,0.2,0,0.3,0.1c0.2,0,0.3,0,0.5,0.1c0.1,0,0.1,0,0.2,0c0.3,0,0.7,0.1,1,0.1c0.2,0,0.5,0,0.7,0
								c0.8,0.2,1.7,0.2,2.4-0.1c0,0,0,0,0.1,0c1.4-0.2,2.7-0.5,3.9-1.1c1.8-0.8,3.4-1.9,4.6-3.4c1.3-1.5,2.1-3.2,2.6-5.2
								c0-0.2,0.1-0.4,0.1-0.5l0.9,0.2c0,0.1,0,0.1,0,0.2c0,0.2,0,0.2,0,0.4c-0.3,0.8-0.2,1.7-0.3,2.5c0,0.7-0.1,1.5,0.1,2.2
								c0,0.4,0.4,0.6,0.5,0.9c0,0.1,0.1,0.2,0.1,0.2c0.2,0.4,0.4,0.8,0.7,1.1c0.3,0.4,0.7,0.9,1.2,1.3l0.1,0.1
								c0.2,0.1,0.3,0.2,0.4,0.3c0.1,0,0.2,0.1,0.3,0.1c0.2,0.1,0.3,0.1,0.5,0.2c0.5,0.3,0.9,0.4,1.5,0.4c0.1,0,0.1,0.1,0.2,0.1
								l0.2-0.1c0.1,0,0.4,0,0.5,0c0.3,0,0.6-0.1,0.9-0.1c0.2,0,0.4,0,0.6-0.1c0.1-0.1,0.4-0.1,0.6-0.2c0.2-0.1,0.4-0.2,0.6-0.3l0,0
								h0.1c0.2-0.1,0.3-0.2,0.5-0.3c0.1,0,0.1,0,0.1-0.1c0,0,0.2-0.2,0.3-0.2l0.2-0.2c0.2-0.1,0.3-0.2,0.4-0.4
								c0.2-0.2,0.4-0.3,0.5-0.5c0.1,0.2,0.3,0.8,0.6,0.9c0.1,0.2,0.3,0.4,0.5,0.5c0.7,0.5,1.3,0.8,2.1,0.9c0.2,0,0.5,0.1,0.7,0.1
								c0.1,0,0.6,0.1,0.7,0.1c0.1,0.1,0.5,0,0.7,0c0.7-0.1,1.1-0.2,1.6-0.5l0,0c0.3-0.1,0.6-0.2,0.9-0.3c0.1-0.1,0.2-0.1,0.3-0.2
								s0.2-0.1,0.4-0.1c1-0.8,1.9-1.5,2.2-2.8c0.1-0.1,0-0.2,0-0.3v-0.1l0,0c0-0.1,0-0.1,0-0.2c0-0.2,0-0.4-0.1-0.6
								s-0.2-0.3-0.3-0.3c0,0-0.2,0.1-0.4,0.4c-0.1,0.1-0.1,0.1-0.2,0.2l0,0c-0.2,0-0.3,0-0.3,0.2l0,0c-0.1,0-0.1,0-0.2,0
								c-0.2,0-0.3,0-0.4-0.1c-0.1-0.1-0.1-0.2-0.1-0.4c0-0.1,0.1-0.2,0.1-0.4l1.1-3.6l1.8-5.8c0.1-0.4,0.3-0.8,0.4-1.2
								c0.4-1.5,0.9-2.9,1.3-4.3c0.1-0.3,0.2-0.7,0.3-1.1l0,0l0.2-0.7c0.1-0.2,0.2-0.5,0.2-0.7c0.1,0,0.2-0.1,0.3,0
								c0-0.4,0-0.9-0.1-1.3c0.1-0.1,0.1-0.2,0.1-0.4h1.9V4.6z"/>
							<path class="st0" d="M199.8-0.3v4.9h-1.7c-0.1-0.2-0.2-0.5-0.4-0.7c-0.1-0.3-0.4-0.5-0.7-0.5c0,0,0,0-0.1,0
								c-0.7-0.5-1.7-0.8-3.1-0.8v-2.8L199.8-0.3L199.8-0.3z"/>
							<path class="st1" d="M197.9,6.3c-0.1,0.2-0.1,0.5-0.2,0.7l-0.2,0.7c0.1-0.4,0.2-0.8,0.2-1.2C197.7,6.4,197.8,6.3,197.9,6.3z"
								/>
							<path class="st1" d="M196.9,3.3C197,3.3,197,3.3,196.9,3.3c0,0,0,0-0.1,0s-0.1,0-0.1,0c-0.3-0.1-0.6-0.2-0.9-0.3
								c-1.5-0.3-2.9-0.3-4.3,0c-0.9,0.2-2.4,0.2-3.4,0.6c0.4-0.2,0.8-0.3,1.4-0.5c1.4-0.4,2.8-0.6,4.3-0.6
								C195.2,2.5,196.2,2.8,196.9,3.3z"/>
							<path class="st1" d="M194.3,17.3c0.4-1,0.7-2,1.1-3l-1.8,5.8c0-0.3,0.1-0.5,0.1-0.8C193.8,18.6,194.1,17.9,194.3,17.3z"/>
							<path class="st1" d="M194.4,24.7c0,0.1,0,0.1,0,0.2c-0.1-0.1,0-0.5-0.2-0.5c-0.1,0-0.2-0.2-0.2-0.2l-0.4,0.1
								c-0.1,0-0.1,0.1-0.1,0.1s0,0-0.1,0c0.1,0,0.1-0.1,0.2-0.2c0.2-0.3,0.4-0.4,0.4-0.4c0.1,0,0.2,0.1,0.3,0.3
								S194.4,24.5,194.4,24.7z"/>
							<path class="st0" d="M193.8-0.3v2.8c-1.5,0-2.9,0.2-4.3,0.6c-0.6,0.2-1,0.3-1.4,0.5c-0.1,0-0.2,0.1-0.3,0.1
								c-0.1,0.1-0.2,0.1-0.2,0.2c-0.1,0.1-0.2,0.1-0.2,0.2l-0.1,0.1c-0.2,0.3-0.3,0.5-0.3,0.6s0,0.1,0.1,0.2c0,0,0,0,0,0.1
								s0,0.1,0.1,0.2s0.3,0.3,0.5,0.5l0,0c0,0,0,0,0.1,0.1s0.2,0.2,0.3,0.3l0,0c0,0,0,0.1,0.1,0.1c0.1,0.1,0.2,0.3,0.2,0.5
								c0,0.1,0,0.1,0,0.1s0,0,0,0.1s-0.1,0.2-0.1,0.3l-1.1,3.8c-0.5-0.3-1-0.6-1.6-0.8c-0.1-0.1-0.3-0.1-0.4-0.1c0,0-0.1,0-0.1-0.1
								c-0.7-0.3-1.6-0.4-2.6-0.4c-1.9,0-3.6,0.6-5.1,1.8c0,0,0,0-0.1,0.1c-0.3,0.2-0.6,0.5-0.9,0.8c-0.1,0.1-0.1,0.1-0.2,0.2
								l-0.1,0.1c-0.4,0.3-0.9,0.9-1,1.3c-0.1,0.2-0.3,0.4-0.4,0.6c-0.1,0.1-0.1,0.2-0.2,0.3l0,0c-0.2,0.3-0.3,0.6-0.4,0.9l0,0
								c-0.1,0.1-0.1,0.3-0.2,0.4v0.1c0,0,0,0.1-0.1,0.1c-0.1,0.1-0.1,0.3-0.2,0.5V17c-0.1,0.3-0.2,0.5-0.3,0.9l-0.1,0.3
								c0,0.2-0.1,0.3-0.1,0.5c-0.1,0.1-0.1,0.4-0.2,0.5L172,19c0.1-0.7,0.2-1.3,0.2-1.9c0-1.8-0.5-3.2-1.5-4.4l0,0
								c-0.5-0.6-1-1.1-1.7-1.5h-0.1c-0.1-0.1-0.2-0.1-0.3-0.2c-0.2-0.1-0.5-0.3-0.7-0.3l0,0c-0.4-0.2-0.9-0.3-1.3-0.4l0,0
								c-0.5-0.2-1-0.2-1.5-0.3c-0.1,0-0.2,0-0.3,0c-0.6-0.1-1.3-0.1-2-0.1c-2.1,0-4.1,0.4-6.1,1.2c-1.8,0.8-3.4,1.9-4.7,3.4
								c-0.2,0.3-0.5,0.6-0.7,0.8c-0.1,0.1-0.2,0.2-0.2,0.3c-0.2,0.3-0.5,0.7-0.6,1c0,0,0,0,0,0.1c-0.5,0.8-0.8,1.7-1,2.7h-1
								c0.2-0.7,0.2-1.3,0.3-1.9c0.1-0.3,0.1-0.5,0.2-0.8c0-0.7,0-1.4-0.3-2c0-0.1-0.1-0.1-0.1-0.1c-0.2-0.8-0.6-1.4-1.2-2
								c-0.1,0-0.1,0-0.1-0.1l0,0c-0.2-0.2-0.5-0.5-0.8-0.7c-0.6-0.5-1.3-0.9-2.2-1.2c-0.5-0.4-1.1-0.6-1.6-0.7
								c-1-0.2-1.9-0.3-2.9-0.3c-0.5,0-1,0-1.5,0.1c-0.2,0-0.4,0-0.5,0.1c-0.8,0.1-1.7,0.3-2.5,0.5s-1.6,0.2-2.2,0.6
								c-0.1,0-0.1,0-0.1,0c-0.8,0.3-1.6,0.7-2.3,1.3c-0.6,0.6-1.3,1-1.8,1.7l-2.7-0.6c0.2-0.1,0.4-0.2,0.6-0.3
								c0.1-0.1,0.2-0.2,0.3-0.3c0.3-0.2,0.4-0.6,0.5-0.9c0.1-0.2,0.1-0.3,0.1-0.4c0-0.8-0.7-1.2-1.8-1.2l0.1-2
								c0.6,0.5,1.5,0.8,2.6,0.8c0.5,0,1,0,1.4-0.1h0.1c0.6-0.1,1.1-0.3,1.5-0.6c0.1-0.1,0.2-0.1,0.2-0.2c0.3-0.1,0.5-0.4,0.7-0.6
								c0.4-0.6,0.5-1.6,0.3-2.3c-0.4-1.4-1.8-2.2-3.2-2.6c-0.1,0-0.1,0-0.1,0C128.3,2.1,127,2,125.6,2v-2.4L193.8-0.3L193.8-0.3z"
								/>
							<path class="st1" d="M193.6,20.1l-1.1,3.6c0,0.2-0.1,0.3-0.1,0.4c0,0.2,0,0.3,0.1,0.4s0.2,0.1,0.4,0.1c0.1,0,0.1,0,0.2,0l0,0
								l0,0c-0.2,0-0.3,0.2-0.5,0.2c-0.1-0.1-0.2-0.2-0.3-0.3c0-0.1,0-0.2,0-0.3c0-0.2,0.1-0.3,0.1-0.4c0.1-0.4,0.2-0.7,0.3-1
								c0.1-0.4,0.2-0.9,0.3-1.3c0.2-0.1,0.3-0.3,0.3-0.6C193.3,20.6,193.5,20.3,193.6,20.1z"/>
							<path class="st1" d="M193.2,24.6c0.1,0,0.1,0,0.2,0.1C193.3,24.7,193.2,24.7,193.2,24.6z"/>
							<path class="st1" d="M191.9,28.2c-0.1,0.1-0.2,0.1-0.3,0.2c-0.3,0.1-0.6,0.2-0.9,0.3C191,28.5,191.4,28.3,191.9,28.2z"/>
							<path class="st1" d="M188.4,6.5c0.1,0.2,0.1,0.3,0.1,0.5c0,0-0.1,0.1-0.1,0.2c-0.1,0.1-0.1,0.1-0.1,0.2v0.1
								c0,0.2-0.1,0.3-0.2,0.5c0,0.1-0.1,0.3-0.1,0.4c-0.1,0.7-0.4,1.3-0.5,1.9c0,0.1,0,0.2,0,0.3c-0.1,0.1-0.1,0.2-0.2,0.3
								c0,0.1,0,0.1,0,0.2l-0.1-0.1l1.1-3.8c0-0.1,0.1-0.2,0.1-0.3c0-0.1,0-0.1,0-0.1s0,0,0-0.1S188.4,6.5,188.4,6.5
								C188.4,6.4,188.4,6.5,188.4,6.5z"/>
							<path class="st2" d="M188.4,6.4c0,0.1,0,0.2,0,0.3c0-0.2-0.1-0.4-0.2-0.5c0,0,0-0.1-0.1-0.1C188.3,6.2,188.4,6.3,188.4,6.4z"
								/>
							<path class="st2" d="M188.4,6.4c-0.1-0.1-0.1-0.2-0.2-0.3l0,0c-0.1-0.1-0.2-0.2-0.4-0.4l0,0c-0.1-0.1-0.1-0.1-0.1-0.2
								l0.1,0.1c0.2,0.2,0.4,0.3,0.5,0.5C188.3,6.2,188.4,6.3,188.4,6.4z"/>
							<path class="st2" d="M187.6,5.5c0,0.1,0,0.1,0.1,0.2c-0.2-0.2-0.4-0.4-0.5-0.5s-0.1-0.1-0.1-0.2c0,0,0,0,0.1,0.1l0,0
								C187.3,5.2,187.5,5.3,187.6,5.5z"/>
							<path class="st1" d="M187.6,5.5c-0.2-0.2-0.3-0.3-0.4-0.4l0,0L187.1,5C187.3,5,187.6,5,187.6,5.5z"/>
							<path class="st1" d="M187.2,5.1C187.2,5,187.2,5,187.2,5.1C187.1,5,187.1,5,187.1,5C187.2,5,187.2,5,187.2,5.1z"/>
							<path class="st2" d="M187.1,4.9L187.1,4.9C187.1,5,187.1,5,187.1,4.9C187.1,5,187.1,4.9,187.1,4.9z"/>
							<path class="st1" d="M186.8,13.4h0.1c0,0.2-0.1,0.5-0.2,0.7c-0.4,1-0.8,2-1.1,3.1c-0.2,0.6-0.4,1.1-0.6,1.7
								c-0.2,0.5-0.4,1-0.6,1.5c-0.2,0.6-0.3,1.2-0.5,1.8s-0.5,1.1-0.8,1.7c-0.1,0-0.1,0-0.1,0c0.2-0.3,0.4-0.7,0.6-1.3l2.9-9
								c-0.3-0.2-0.6-0.4-1-0.5c0.2,0,0.4,0,0.6,0.2C186.3,13.4,186.5,13.4,186.8,13.4z"/>
							<path class="st1" d="M186.5,13.6l-2.9,9c-0.2,0.6-0.4,1-0.6,1.3h-0.1c0,0-0.1,0-0.2,0h-0.1c-0.1,0-0.1,0-0.1,0
								c-0.1,0-0.1,0-0.2,0h-0.1c-0.1,0-0.3-0.1-0.4-0.2c-0.1,0-0.2-0.1-0.3-0.1v-0.1c-0.2-0.4-0.3-0.7-0.4-1.1c0-0.1,0-0.1,0-0.2
								s0-0.2,0-0.3c0.2-0.5,0.2-1.1,0.2-1.7c0.1-0.4,0.1-0.7,0.2-1.1c0.1-0.6,0.3-1.2,0.5-1.8c0.2-0.5,0.5-1.1,0.8-1.6
								s0.6-1,0.9-1.5c0-0.1,0-0.2,0-0.3l0.1-0.1l0.1-0.1c0.2-0.2,0.4-0.3,0.6-0.4l0,0c0.1,0,0.1,0,0.1-0.1l0,0
								c0.3,0,0.5-0.1,0.8-0.1l0,0C185.9,13.2,186.2,13.3,186.5,13.6z"/>
							<path class="st2" d="M186,10.4c0.1,0,0.2,0.1,0.2,0.1c-0.4-0.2-0.7-0.3-1.1-0.5C185.4,10.2,185.7,10.3,186,10.4z"/>
							<path class="st2" d="M185.3,10c0.3,0.1,0.5,0.3,0.8,0.4C185.8,10.3,185.5,10.1,185.3,10c-0.5-0.1-0.9-0.2-1.3-0.3
								C184.4,9.8,184.8,9.9,185.3,10z"/>
							<path class="st2" d="M185.1,10c0,0,0.1,0,0.1,0.1c-0.4-0.1-0.9-0.2-1.3-0.3c-0.4-0.1-0.9-0.1-1.4-0.1c-1.4,0-2.8,0.3-4,1
								c-0.3,0.1-0.5,0.2-0.7,0.5l-0.3,0.2c-0.1,0-0.1,0-0.1,0c1.5-1.2,3.2-1.8,5.1-1.8C183.5,9.6,184.4,9.7,185.1,10z"/>
							<path class="st1" d="M184.7,13.2c-0.1,0-0.1,0-0.1,0.1C184.6,13.2,184.6,13.2,184.7,13.2C184.6,13.2,184.6,13.2,184.7,13.2z"
								/>
							<path class="st1" d="M184,9.8c-0.4,0-0.9,0-1.3,0c-1,0.1-2,0.2-2.9,0.6c-0.4,0.2-0.8,0.2-1.2,0.3c1.2-0.7,2.5-1,4-1
								C183,9.7,183.5,9.7,184,9.8z"/>
							<path class="st1" d="M181.9,28.2c0.1-0.1,0.2-0.1,0.2-0.1c-0.2,0.1-0.3,0.2-0.5,0.3C181.8,28.3,181.9,28.2,181.9,28.2z"/>
							<path class="st2" d="M180.9,22.7c0.1,1,0.5,1.5,1.3,1.6C181.3,24.3,180.9,23.7,180.9,22.7z"/>
							<path class="st2" d="M177.8,11.2c0.2-0.2,0.4-0.4,0.7-0.5C178.3,10.9,178.1,11,177.8,11.2z"/>
							<path class="st2" d="M177.8,11.2c-0.1,0.1-0.3,0.2-0.4,0.3c-0.1,0.1-0.2,0.1-0.2,0.2c0-0.1,0.1-0.1,0.1-0.2l0,0
								c0,0,0,0,0.1-0.1c0,0,0,0,0.1,0L177.8,11.2z"/>
							<path class="st2" d="M177.4,11.4C177.3,11.5,177.3,11.5,177.4,11.4c-0.1,0.1-0.1,0.2-0.2,0.2c-0.1,0.1-0.2,0.2-0.3,0.3
								c0,0,0,0-0.1,0c-0.1,0.1-0.3,0.2-0.4,0.3C176.8,12,177.1,11.7,177.4,11.4z"/>
							<path class="st1" d="M176.9,12c0.1-0.1,0.2-0.2,0.3-0.3C177.1,11.8,177,11.9,176.9,12z"/>
							<path class="st2" d="M176.8,12C176.9,12,176.9,12,176.8,12c-1.1,1.1-2.1,2.4-2.8,4c0-0.1,0.1-0.2,0.1-0.3l0,0
								c0.1-0.3,0.3-0.6,0.4-0.9l0,0c0,0,0-0.1,0.1-0.1c0.1-0.1,0.1-0.2,0.1-0.2c0.1-0.2,0.2-0.4,0.4-0.6c0.4-0.5,0.7-1,1.1-1.4
								c0.1-0.1,0.1-0.1,0.2-0.2C176.6,12.2,176.7,12.1,176.8,12z"/>
							<path class="st2" d="M174.8,14.5c0,0.1-0.1,0.1-0.1,0.2l-0.1,0.1C174.6,14.7,174.7,14.6,174.8,14.5z"/>
							<path class="st2" d="M173.9,16.1c0.1-0.1,0.1-0.3,0.2-0.4c0,0.1-0.1,0.2-0.1,0.3C174,16,174,16,173.9,16.1
								C174,16.1,173.9,16.1,173.9,16.1L173.9,16.1z"/>
							<path class="st1" d="M174,16L174,16C174.1,16,174,16,174,16L174,16z"/>
							<path class="st2" d="M174,16c0,0-0.1,0.1-0.1,0.2c-0.4,1.1-0.8,2.2-1,3.3c0.2-0.9,0.4-1.8,0.7-2.7v-0.1
								c0.1-0.1,0.1-0.2,0.1-0.4c0,0,0,0,0-0.1c0,0,0-0.1,0.1-0.1C173.9,16.1,174,16.1,174,16z"/>
							<path class="st2" d="M173.9,16.3C173.8,16.3,173.8,16.4,173.9,16.3c-0.1,0.2-0.1,0.3-0.2,0.5
								C173.7,16.6,173.8,16.5,173.9,16.3z"/>
							<path class="st1" d="M171.8,18.3c0.3-0.6,0.4-1.2,0.3-1.9c-0.1-0.7-0.2-1.3-0.4-1.9c-0.2-0.7-0.6-1.3-1-1.8
								c1,1.2,1.5,2.6,1.5,4.4c0,0.5-0.1,1.2-0.2,1.9c0,0.2-0.1,0.4-0.1,0.5c-0.5,2-1.3,3.7-2.6,5.2c-1.2,1.5-2.8,2.6-4.6,3.4
								c-1.2,0.5-2.5,0.9-3.9,1.1c0.3-0.1,0.5-0.2,0.8-0.4c0.1,0,0.2-0.1,0.3-0.1h0.3c1.1-0.1,2.1-0.6,3.1-1.2
								c1-0.5,1.9-1.1,2.7-1.8c0.9-0.7,1.6-1.6,2.2-2.6c0.7-1.2,1-2.5,1.5-3.7C171.9,19.1,171.8,18.8,171.8,18.3z"/>
							<path class="st1" d="M167.9,10.7c-0.3-0.1-0.5-0.2-0.8-0.2c-0.2-0.1-0.3-0.2-0.5-0.2C167,10.4,167.5,10.5,167.9,10.7z"/>
							<path class="st1" d="M164.7,10c0,0-0.1,0-0.2,0c-0.1,0-0.3,0-0.3,0h-1.4c-0.8,0-1.7,0.1-2.5,0.2c-0.8,0.2-1.6,0.3-2.3,0.7
								c-0.2,0.1-0.5,0.1-0.7,0.2c-1,0.3-1.9,0.7-2.7,1.3c-0.4,0.3-0.8,0.6-1.2,1c-0.4,0.3-0.9,0.6-1.3,1c-0.3,0.3-0.6,0.6-0.9,0.9
								c0.2-0.3,0.4-0.6,0.7-0.8c1.3-1.5,2.9-2.6,4.7-3.4c2-0.8,4-1.2,6.1-1.2C163.5,9.9,164.1,9.9,164.7,10z"/>
							<path class="st1" d="M163.4,13.7c0.1,0.3,0.1,0.6,0,1c0,0.6-0.1,1.3-0.2,1.9c-0.1,0.7-0.4,1.3-0.6,1.9
								c-0.2,0.6-0.2,1.3-0.5,1.8c-0.1,0.2-0.1,0.4,0,0.6V21c-0.1,0.2-0.2,0.3-0.3,0.5s-0.1,0.3-0.1,0.5c0,0.1-0.1,0.1-0.1,0.2
								c-0.3,0.4-0.4,0.8-0.6,1.3c-0.1,0.2-0.2,0.5-0.3,0.7v0.1c-0.1,0-0.1,0.1-0.1,0.1c-0.1,0.2-0.1,0.3-0.2,0.4
								c-0.1,0.2-0.3,0.4-0.4,0.6l-0.1,0.1c-0.1,0-0.1,0.1-0.1,0.1s-0.1,0.1-0.2,0.2l-0.1,0.1c0,0.1-0.1,0.1-0.1,0.1
								c-0.1,0.1-0.2,0.1-0.3,0.2c-0.1,0-0.1-0.1-0.2-0.1h-0.1c-0.1-0.1-0.3-0.1-0.4-0.2c-0.1-0.1-0.2-0.1-0.3-0.1
								c-0.1-0.2-0.2-0.5-0.2-0.9c0-1.1,0.4-2.8,1.2-5.3c0.2-0.5,0.3-1,0.5-1.4c0.1-0.4,0.3-0.7,0.4-1.1c0.1-0.3,0.2-0.6,0.3-0.9
								c0.2-0.5,0.4-0.9,0.5-1.2c0-0.1,0.1-0.1,0.1-0.2c0.1-0.2,0.2-0.3,0.2-0.4c0.1-0.1,0.2-0.2,0.2-0.3c0.1-0.1,0.1-0.2,0.2-0.2
								c0.4-0.5,0.8-0.8,1.2-0.8c0.3,0,0.5,0.1,0.6,0.5C163.3,13.6,163.3,13.6,163.4,13.7z"/>
							<path class="st1" d="M163.4,13.7l-0.1-0.1c-0.1-0.4-0.3-0.5-0.6-0.5c-0.4,0-0.8,0.3-1.2,0.8c0.1-0.2,0.3-0.4,0.4-0.6
								c0.2-0.1,0.4-0.3,0.5-0.5l0.6,0.1C163.1,13.1,163.3,13.4,163.4,13.7z"/>
							<path class="st1" d="M162,20.9L162,20.9L162,20.9L162,20.9z"/>
							<path class="st1" d="M161.6,22.2c0-0.1,0.1-0.2,0.1-0.2v0.1C161.6,22.1,161.6,22.2,161.6,22.2z"/>
							<path class="st1" d="M160.7,15C160.8,15,160.8,14.9,160.7,15C160.8,14.9,160.7,15,160.7,15L160.7,15z"/>
							<path class="st1" d="M160.5,15.2c0.1-0.1,0.2-0.1,0.2-0.1c-0.2,0.3-0.4,0.7-0.5,1.2c0-0.2,0-0.3,0-0.4
								C160.3,15.6,160.4,15.4,160.5,15.2z"/>
							<path class="st1" d="M159.3,18.6c0.1-0.1,0.1-0.3,0.2-0.4c-0.2,0.4-0.3,0.9-0.5,1.4c-0.8,2.5-1.2,4.2-1.2,5.3
								c0,0.4,0.1,0.7,0.2,0.9c0,0-0.1,0-0.2-0.1c0-0.1,0-0.3-0.1-0.4v-0.1c-0.1,0-0.1-0.1-0.1-0.2v-0.3c0-0.1,0-0.4,0-0.4
								c0.1-0.1,0.1-0.2,0.1-0.3c0.1-0.7,0.3-1.3,0.4-2c0-0.1,0-0.1,0-0.2c0.2-0.8,0.5-1.6,0.7-2.4v-0.1c0.1-0.1,0.1-0.1,0.1-0.2
								c0.1-0.1,0.1-0.2,0.1-0.3C159.1,18.8,159.2,18.7,159.3,18.6z"/>
							<path class="st1" d="M155.1,28.9c0.2,0,0.3,0.1,0.5,0.1C155.4,29,155.3,29,155.1,28.9z"/>
							<path class="st1" d="M155.1,28.9c-0.9-0.2-1.7-0.5-2.4-0.8h0.1C153.5,28.5,154.3,28.7,155.1,28.9z"/>
							<path class="st1" d="M151.3,27.1v0.1c-1.6-1.3-2.3-3.1-2.3-5.2c0-0.7,0.1-1.6,0.3-2.5c0.3-1,0.6-1.9,1-2.7
								c-0.1,0.1-0.1,0.2-0.1,0.3c-0.5,1.1-0.8,2.2-0.9,3.3c0,0.6,0,1.1,0.1,1.7c0,0.1,0,0.1,0,0.1c0,0.2-0.1,0.4-0.1,0.6
								c-0.1,0.2-0.1,0.5-0.1,0.7s0,0.3,0.1,0.5c0.1,0.4,0.2,0.7,0.4,1c0.1,0.2,0.3,0.4,0.4,0.5C150.4,26.1,150.8,26.7,151.3,27.1z"
								/>
							<path class="st1" d="M148.4,18.5c0.1-0.3,0.1-0.6,0.2-0.9c0,0.6-0.1,1.2-0.3,1.9c-0.4,1.5-0.9,2.8-1.7,4c0-0.1,0-0.2,0.1-0.2
								c0-0.1,0-0.1,0-0.2c0.2-0.2,0.3-0.5,0.5-0.8c0.3-0.6,0.6-1.2,0.8-1.8c0.1-0.3,0.2-0.7,0.2-1
								C148.3,19.1,148.3,18.8,148.4,18.5z"/>
							<path class="st1" d="M147.1,12.6L147.1,12.6c-0.2-0.1-0.3-0.2-0.4-0.3c-0.7-0.7-1.5-1.2-2.4-1.5c-0.1-0.1-0.1-0.1-0.2-0.1
								c0.9,0.3,1.6,0.7,2.2,1.2C146.6,12.1,146.9,12.4,147.1,12.6z"/>
							<path class="st1" d="M144.8,25.5c0.2-0.1,0.3-0.2,0.4-0.3c-0.5,0.6-1.1,1-1.7,1.5C144.1,26.3,144.5,25.9,144.8,25.5z"/>
							<path class="st1" d="M141.3,28c0,0-0.1,0-0.1,0.1c-1.8,0.8-3.8,1.2-5.9,1.2c-2.5,0-4.6-0.4-6.1-1.2c1.5,0.6,3.1,1.1,4.7,1.1
								c0.1,0,0.2-0.1,0.3-0.1c0.5,0,1,0,1.5,0c0.8,0,1.5-0.1,2.3-0.2c0.3-0.1,0.5-0.1,0.8-0.2C139.6,28.6,140.5,28.3,141.3,28z"/>
							<path class="st1" d="M139.8,15c0,0.2,0,0.3,0,0.4c-0.1,0.4-0.1,0.7-0.2,1.1v0.1v0.1l0,0c-0.1,0.1-0.1,0.2-0.1,0.3
								c-0.1,0.4-0.2,0.8-0.3,1.2c-0.2,0.4-0.3,0.8-0.4,1.2c-0.1,0.2-0.1,0.3-0.1,0.5c-0.3,0.7-0.6,1.3-0.8,2
								c-0.3,0.9-0.6,1.7-1.1,2.5c0,0.1,0,0.2,0.1,0.3c-0.1,0.1-0.1,0.2-0.2,0.3c0,0,0,0,0,0.1c-0.3,0.3-0.5,0.6-0.8,1l0,0
								c-0.2,0.2-0.4,0.2-0.6,0.2c-0.3,0-0.5-0.1-0.7-0.3c-0.2-0.2-0.3-0.6-0.3-1.1c0-1.1,0.4-2.8,1.2-5.3c0.3-1,0.6-2,0.9-2.7
								c0.1-0.3,0.3-0.5,0.4-0.8c0-0.1,0.1-0.2,0.1-0.3c0.1-0.1,0.1-0.1,0.1-0.2c0.1-0.2,0.2-0.4,0.3-0.6c0.1-0.1,0.1-0.2,0.1-0.3
								s0.1-0.1,0.1-0.2c0.6-0.9,1.1-1.4,1.6-1.4c0.3,0,0.5,0.1,0.6,0.5c0.1,0,0.2,0.1,0.2,0.3l0,0V14
								C139.8,14.3,139.8,14.7,139.8,15z"/>
							<path class="st1" d="M139.8,13.8L139.8,13.8c0-0.1-0.1-0.2-0.2-0.2c-0.1-0.4-0.3-0.5-0.6-0.5c-0.5,0-1,0.5-1.6,1.4
								c0,0.1-0.1,0.1-0.1,0.2c0-0.1,0-0.1,0-0.2c0.3-0.4,0.7-0.9,1-1.3h0.1c0.2,0,0.4-0.1,0.5-0.3h0.1c0,0,0.1,0.1,0.2,0.1
								c0,0.1,0.1,0.1,0.1,0.1s0.1,0.1,0.2,0.1c0,0.1,0.1,0.1,0.1,0.1l0.1,0.1C139.8,13.5,139.8,13.6,139.8,13.8L139.8,13.8z"/>
							<path class="st1" d="M139.6,16.7L139.6,16.7L139.6,16.7L139.6,16.7L139.6,16.7z"/>
							<path class="st1" d="M136.9,24.7C136.9,24.7,136.9,24.8,136.9,24.7c-0.1,0.2-0.1,0.2-0.2,0.3c0,0,0,0,0-0.1
								C136.8,24.9,136.9,24.8,136.9,24.7z"/>
							<path class="st1" d="M136,17.4c0.1-0.2,0.2-0.3,0.3-0.5c-0.3,0.8-0.6,1.7-0.9,2.7c-0.8,2.5-1.2,4.2-1.2,5.3
								c0-0.1,0-0.1,0-0.2c0-0.4,0-0.7,0-1.1c0.2-0.7,0.4-1.4,0.6-2.1c0.1-0.4,0.2-0.8,0.3-1.2c0.3-0.8,0.6-1.6,0.7-2.4
								c0-0.1,0-0.2,0-0.3C135.9,17.5,135.9,17.5,136,17.4z"/>
							<path class="st1" d="M135.9,26.1c-0.1,0.1-0.2,0.3-0.4,0.4h-0.1c-0.1,0-0.2,0-0.3,0s-0.1-0.1-0.2-0.1c-0.1,0-0.1-0.1-0.2-0.1
								h-0.1c-0.1-0.1-0.1-0.1-0.1-0.1c-0.1-0.1-0.1-0.1-0.1-0.1c0-0.1,0-0.1,0-0.1c-0.1,0-0.1-0.1-0.1-0.2
								c-0.1-0.1-0.1-0.2-0.1-0.3v-0.1v-0.1c0-0.1,0-0.3,0-0.4c0,0.5,0.1,0.9,0.3,1.1s0.4,0.3,0.7,0.3
								C135.5,26.3,135.7,26.2,135.9,26.1z"/>
							<path class="st1" d="M131.5,8.3c0,0,0.1,0,0.1-0.1C131.5,8.3,131.5,8.3,131.5,8.3c-0.5,0.4-1,0.6-1.6,0.7
								c0.1,0,0.1-0.1,0.2-0.1c0.1-0.1,0.1-0.1,0.7-0.4C131.1,8.5,131.3,8.4,131.5,8.3z"/>
							<path class="st1" d="M129.5,9h0.3c-0.4,0.1-0.9,0.1-1.4,0.1c-1.1,0-2-0.3-2.6-0.8s-0.9-1.2-0.9-2.1c0-0.3,0-0.5,0.2-0.8
								c0,0.2-0.1,0.4-0.1,0.6c0,0.8,0.4,1.7,1,2.2s1.4,0.8,2.2,0.8c0.3,0,0.6,0,0.9-0.1C129.2,9,129.3,9,129.5,9L129.5,9z"/>
							<path class="st1" d="M128.1,27.5c-0.1-0.1-0.2-0.1-0.2-0.2c-0.6-0.5-1.1-1.1-1.5-1.7c0,0,0.1,0.1,0.2,0.1
								c0.1,0.1,0.1,0.2,0.2,0.3s0.1,0.1,0.2,0.2c0.2,0.4,0.5,0.7,0.8,0.9C127.9,27.2,128,27.4,128.1,27.5z"/>
							<path class="st1" d="M128.3,14.5c-0.2,0.4-0.4,0.7-0.6,1.1c-0.8,1.1-1.5,2.3-1.9,3.6c-0.1,0.2-0.1,0.4-0.1,0.6
								c0-0.1,0-0.2,0-0.3C126.2,17.6,127,16,128.3,14.5z"/>
							<path class="st1" d="M127.5,11.5c0,0.1,0,0.2-0.1,0.4c-0.1,0.3-0.2,0.6-0.5,0.9c0.2-0.2,0.2-0.4,0.3-0.7
								C127.4,11.9,127.4,11.7,127.5,11.5c-0.2-0.7-0.9-1-1.5-1.1s-1.1-0.1-1.6,0c-0.1-0.1-0.2-0.1-0.3-0.1h1.5h0.1
								C126.9,10.3,127.5,10.7,127.5,11.5z"/>
							<path class="st1" d="M125.7,19.8c-0.2,0.9-0.2,1.8-0.2,2.7c0,0.1-0.1,0.1-0.1,0.2c0-0.2,0-0.4,0-0.7
								C125.4,21.4,125.5,20.6,125.7,19.8z"/>
							<path class="st0" d="M125.5-0.3v2.4c-1,0-2,0.1-2.9,0.2c-0.1,0.1-0.1,0.1-0.2,0.1c-0.5,0-1,0.1-1.4,0.2c-1.1,0.2-2,0.5-2.8,1
								c-1.5,0.8-2.4,1.9-2.9,3.1C115.1,7.4,115,8,115,8.6c0,0.5,0.1,1.1,0.2,1.6h-0.6c-0.4,0-0.9,0-1.3,0.2l-0.1,0.1l0,0
								c-0.3,0-0.6,0.1-0.8,0.2c-0.4,0.2-0.5,0.5-0.5,1c0,0.1,0,0.2,0.1,0.3h-1.9c-0.1-0.3-0.3-0.6-0.5-0.8c-0.7-1-1.8-1.7-3.1-1.5
								c-0.3,0-0.6,0.2-0.9,0.4s-0.6,0.4-0.9,0.7c0,0-0.1,0-0.1,0.1c-0.3,0.1-0.6,0.3-0.7,0.7c-0.2,0.8-0.6,1.4-0.8,2.2
								c-0.1,0.4-0.1,0.9-0.1,1.4l-2.3,0.3c-0.2-1.2-0.4-2.2-0.8-2.9c0-0.1-0.1-0.3-0.2-0.4c-0.1-0.2-0.2-0.4-0.4-0.6
								c-0.1-0.1-0.2-0.2-0.3-0.3c-0.2-0.2-0.4-0.3-0.6-0.5h-0.1c-0.1-0.1-0.2-0.1-0.2-0.1s0,0-0.1,0c-0.4-0.2-0.9-0.3-1.4-0.4
								c0,0,0,0-0.1,0c-0.1-0.1-0.1-0.1-0.2-0.1h-0.1c-0.1,0-0.1,0-0.2,0s-0.1,0.1-0.2,0.1h-0.1c-1.5,0-2.7,0.4-3.9,1.4
								c0,0,0,0-0.1,0.1l0,0c-0.4,0.3-0.9,0.7-1.1,1.1l0,0c-0.5,0.6-0.9,1.3-1.1,2.1c-0.1,0.2-0.2,0.3-0.2,0.5v0.1
								c0,0.2-0.1,0.3-0.1,0.4l-1.8-0.3c0.1-0.4,0.1-0.8,0.1-1.1c0-1.2-0.3-2.2-1-3c-0.2-0.4-0.5-0.7-0.9-1
								c-0.1-0.1-0.2-0.1-0.3-0.1l0,0c-0.7-0.5-1.6-0.7-2.7-0.7c-1,0-1.8,0.2-2.7,0.5c-0.3,0.1-0.5,0.2-0.8,0.3l0,0
								c-0.1,0-0.3,0.1-0.4,0.2c-0.1,0-0.1,0-0.1,0.1c0,0,0,0-0.1,0l0,0c-0.1,0-0.1,0-0.1,0c-0.1,0-0.2,0.1-0.3,0.1
								c-0.3,0.1-0.7,0.4-0.9,0.7c-0.2,0.1-0.4,0.3-0.5,0.5c0,0.1-0.1,0.1-0.1,0.2l-0.4,0.4c0,0.1-0.1,0.1-0.2,0.2
								c0,0.1-0.1,0.1-0.1,0.1c-0.1,0-0.2,0.1-0.2,0.1l-0.1,0.1c-0.1,0.1-0.2,0.2-0.3,0.2c-0.2-0.9-0.6-1.7-1.3-2.3l-0.1-0.1l0,0
								c-0.1-0.1-0.1-0.1-0.2-0.2c-0.8-0.7-1.9-1-3.1-1c-1.1,0-2.1,0.1-3,0.6c-0.3,0.1-0.5,0.2-0.8,0.3c-0.1,0.1-0.2,0.2-0.3,0.3
								l0,0c-0.2,0.1-0.5,0.3-0.7,0.5l0,0c-0.4,0.1-0.6,0.4-0.7,0.6L65,12.3c-0.3,0.1-0.4,0.3-0.5,0.6c-0.3,0-0.4,0.1-0.5,0.2
								c-0.1-0.9-0.4-1.6-1-2.2l0,0c0-0.1-0.1-0.1-0.2-0.1c-0.2-0.2-0.5-0.4-0.7-0.5H62h-0.1c-0.1-0.1-0.1-0.1-0.2-0.1l0,0
								c-0.1,0-0.2-0.1-0.3-0.1C61.2,10,61.1,10,60.9,10c-0.1,0-0.3-0.1-0.5-0.1H59c-0.1,0-0.2,0.1-0.3,0.1s-0.1,0-0.1,0
								c-0.1,0-0.2,0-0.3,0.1c0,0-0.1,0-0.2,0C57.9,10,57.7,10,57.6,10h-0.8c-0.4,0-0.8,0-1.2,0.1h-0.1c-0.3,0-0.5,0.1-0.6,0.3
								c-0.1,0-0.1,0-0.1,0c-0.2,0-0.3,0.1-0.4,0.1c-0.3,0.2-0.6,0.4-0.9,0.6v0.1c0,0.1,0,0.1,0,0.2v0.5c0,0.1,0.1,0.1,0.1,0.2
								c0.1,0,0.1,0.1,0.1,0.1c0.1,0,0.1,0.1,0.2,0.2l0.3,0.3H54c0.1,0.2,0.2,0.4,0.3,0.5v0.7c-0.1,0.1-0.1,0.2-0.1,0.3s0,0.1,0,0.1
								c0,0.1-0.1,0.3-0.1,0.4c-0.2,0.5-0.3,0.9-0.5,1.4v0.3c-0.2,0.3-0.3,0.5-0.4,0.8c-0.3,0.8-0.4,1.6-0.6,2.4
								c-0.5,1.4-1,2.9-1.3,4.3c-0.4,0.3-0.5,0.8-0.4,1.3c-0.1,0-0.1,0.1-0.2,0.1c-0.2,0.3-0.4,0.6-0.7,0.9s-0.6,0.6-0.9,0.8
								c-0.1,0-0.2,0-0.3,0l-0.6-0.1c0,0,0,0,0-0.1l0,0c0.1-0.1,0.1-0.2,0.2-0.3c0.3-0.6,0.5-1.2,0.5-1.8c0-0.2,0-0.4-0.1-0.5
								c-0.1-0.2-0.2-0.3-0.3-0.3c0,0-0.2,0.1-0.3,0.3l0,0c-0.3,0-0.5,0.2-0.5,0.4c0,0,0,0-0.1,0c-0.1-0.1-0.2-0.1-0.2-0.1
								c-0.1,0-0.1,0-0.2,0c-0.1-0.1-0.2-0.1-0.3-0.1c0-0.1,0-0.2,0-0.3c0-0.2,0.1-0.3,0.1-0.4l1.8-6l0,0c0.3-0.5,0.5-1,0.6-1.7
								c0.1-0.4,0.1-0.9,0.1-1.4v-0.1c0-1.5-0.5-2.6-1.4-3.5s-2-1.3-3.5-1.3c-1.2,0-2.3,0.2-3.2,0.6c-1,0.5-2,1.3-2.9,2.5h-0.1
								l1.9-6.2c0.2-0.5,0.3-1,0.3-1.5c0-1-0.3-1.7-1-2.2s-1.7-0.8-3.1-0.8v-2.6h89V-0.3z"/>
							<path class="st1" d="M123.9,4.7h0.7c-0.4,0.1-0.7,0.2-1,0.4c-0.5,0.3-0.9,0.9-1.1,1.8c-0.1,0.5-0.2,1-0.2,1.5
								c0,0.6,0.1,1,0.3,1.4c0.1,0.2,0.3,0.4,0.6,0.4c-0.1,0-0.1,0.1-0.2,0.1c-0.1-0.1-0.2-0.1-0.3-0.1c0-0.2-0.1-0.4-0.3-0.5
								c0-0.1,0-0.2-0.1-0.3c0-0.2,0-0.4-0.2-0.6c0-0.3,0.1-0.7,0.1-1c0-0.4,0.2-0.9,0.3-1.4c0.2-0.3,0.4-0.7,0.6-1
								c0-0.1,0.1-0.1,0.1-0.1C123.5,5.1,123.7,4.9,123.9,4.7z"/>
							<path class="st1" d="M123.7,10.3h0.5c-0.1,0-0.2,0.1-0.3,0.1C123.8,10.3,123.7,10.3,123.7,10.3z"/>
							<path class="st1" d="M124.1,13.5h-0.7l-0.3,1.1c0-0.1,0-0.1-0.1-0.1c0.1-0.3,0.2-0.7,0.3-1C123.6,13.4,123.8,13.4,124.1,13.5
								z"/>
							<path class="st1" d="M122.3,17c0-0.1,0.1-0.1,0.1-0.2l-1.4,4.7c0-0.3,0.1-0.5,0.2-0.8c0.1-0.5,0.3-1,0.5-1.5
								C121.8,18.4,122,17.7,122.3,17z"/>
							<path class="st1" d="M122.3,2.4C122.3,2.4,122.3,2.5,122.3,2.4c-0.5,0.1-1,0.1-1.4,0.2C121.4,2.5,121.8,2.5,122.3,2.4z"/>
							<path class="st1" d="M120.9,27.7c0.1,0.1,0.1,0.2,0,0.4c-0.1,0.3-0.4,0.5-0.7,0.7c-0.4,0.1-0.9,0.2-1.7,0.2h-8.2
								c-0.6,0-1.1-0.1-1.4-0.3c-0.3-0.2-0.4-0.5-0.3-0.8c0-0.1,0.1-0.1,0.1-0.2c0.1-0.1,0.2-0.2,0.3-0.3c-0.2,0.2-0.3,0.4-0.2,0.6
								c0,0.2,0.1,0.3,0.2,0.4c0.1,0.3,0.3,0.5,0.7,0.5c0.9,0,1.9-0.1,2.8-0.1s1.9,0.1,2.8,0.1c0.8,0,1.7-0.2,2.5-0.2
								c0.1,0,0.1,0,0.2,0h0.3c0,0.1,0.1,0.1,0.2,0.1h0.1c0,0.1,0.2,0.1,0.3,0.1c0.1,0,0.2-0.1,0.3-0.1h0.1c0.1,0,0.2-0.1,0.3-0.1
								c0.1,0.1,0.2,0.1,0.3,0.1c0.3,0,0.5-0.2,0.6-0.4C120.7,28.3,120.9,28,120.9,27.7z"/>
							<path class="st1" d="M120.9,2.6c-0.4,0.1-0.9,0.2-1.3,0.4c-0.6,0.2-1.2,0.6-1.7,1c-0.3,0.1-0.5,0.3-0.7,0.5
								c-0.1,0.1-0.1,0.1-0.2,0.2c-0.7,0.3-1.1,0.9-1.3,1.6c0,0-0.1,0.1-0.1,0.2c-0.2,0.6-0.4,1.3-0.4,2c0,0.6,0.1,1.2,0.3,1.7h-0.4
								c-0.2-0.5-0.2-1.1-0.2-1.6c0-0.6,0.1-1.2,0.3-1.9c0.5-1.2,1.4-2.3,2.9-3.1C118.9,3.2,119.8,2.8,120.9,2.6z"/>
							<path class="st1" d="M114.1,15v0.1c-0.1,0.1-0.1,0.1-0.1,0.2c-0.1,0-0.1,0.1-0.1,0.1c-0.1,0.2-0.1,0.4,0,0.5
								c-0.5,0.7-0.7,1.5-0.9,2.2c-0.2,0.5-0.3,1-0.4,1.6c-0.1,0.1-0.1,0.3-0.1,0.4v0.3c-0.1,0.4-0.4,0.8-0.5,1.2
								c0,0.2-0.1,0.3-0.1,0.4c-0.1,0.2-0.2,0.5-0.2,0.7c-0.1,0.4-0.2,0.9-0.3,1.3v0.1c0,0.1-0.1,0.1-0.1,0.2
								c-0.2,0.3-0.3,0.6-0.4,1c0,0.2,0,0.4-0.1,0.6c-0.1,0.1-0.2,0.3-0.4,0.4l-0.1,0.1c0,0.1-0.1,0.1-0.1,0.1h-0.1l0.1-0.1
								c0.2-0.3,0.4-0.7,0.6-1.3l1.8-6l1-3.2c0.1-0.4,0.2-0.7,0.2-1.1c0-0.5-0.1-0.9-0.3-1.1c-0.2-0.3-0.5-0.6-0.9-0.9
								c-0.3-0.2-0.5-0.4-0.6-0.5s-0.1-0.2-0.1-0.3s-0.1-0.2-0.1-0.3c0-0.5,0.1-0.8,0.5-1c0.2-0.1,0.5-0.2,0.8-0.2
								c-0.1,0-0.1,0.1-0.2,0.1h-0.1c-0.3,0-0.5,0.2-0.7,0.4c-0.2,0.3-0.1,0.7,0.1,0.9c0,0,0.1,0.1,0.1,0.2c0.1,0.3,0.3,0.4,0.5,0.5
								l0.3,0.3c0,0.1,0.1,0.1,0.1,0.1c0.1,0,0.1,0.1,0.2,0.1c0,0.1,0.1,0.1,0.1,0.1c0.1,0.1,0.1,0.1,0.2,0.2l0.1,0.1
								c0,0.1,0.1,0.1,0.1,0.2c0,0.1,0.1,0.1,0.1,0.2v0.2c0,0.1,0.1,0.2,0.1,0.4v0.1c0,0,0,0.1,0,0.2
								C114.1,14.9,114.1,14.9,114.1,15z"/>
							<path class="st1" d="M110.4,14.1c0,0.2,0,0.4,0,0.6c0,1.1-0.2,2.3-0.5,3.5c-0.1,0.2-0.1,0.4-0.2,0.6c-0.8,2.7-2,5.1-3.7,7.5
								h-0.1c0.3-0.4,0.5-0.8,0.8-1.2c0-0.1,0.1-0.2,0.1-0.3c0.3-0.3,0.4-0.6,0.6-1c0.2-0.3,0.4-0.5,0.4-1.3
								c0.4-0.6,0.7-1.2,0.9-1.8c0.3-0.7,0.5-1.5,0.7-2.2c0.1-0.3,0.3-0.7,0.4-1c0.2-0.6,0.4-1.2,0.4-1.9c0-0.3,0.1-0.5,0.1-0.8
								c0-0.1,0-0.1,0-0.2v-0.1C110.4,14.4,110.4,14.3,110.4,14.1z"/>
							<path class="st1" d="M110.4,13.9c0-0.1,0-0.1-0.1-0.2c0-0.2-0.1-0.5-0.1-0.8C110.3,13.3,110.4,13.6,110.4,13.9z"/>
							<path class="st1" d="M109.8,26.9C109.7,26.9,109.7,26.9,109.8,26.9c-0.1,0.1-0.1,0.1-0.2,0.1
								C109.6,26.9,109.7,26.9,109.8,26.9z"/>
							<path class="st1" d="M106,26.3c-0.2,0.3-0.4,0.6-0.6,0.9l-0.1,0.1c0.1-0.2,0.2-0.4,0.3-0.6C105.8,26.6,105.9,26.4,106,26.3
								L106,26.3z"/>
							<path class="st1" d="M105.4,19.8C105.5,19.9,105.5,19.9,105.4,19.8c0,0.1,0,0.2,0,0.2c-0.3-0.3-0.6-0.6-0.9-0.9
								c0.2,0.2,0.4,0.3,0.6,0.4C105.3,19.7,105.2,19.6,105.4,19.8z"/>
							<path class="st1" d="M103.8,28.7c0.4-0.3,0.8-0.6,1.2-0.9c-1.8,2.3-4,4.3-6.3,5.7c-2.5,1.6-5,2.4-7.6,2.4
								c-1.2,0-2.3-0.2-3.2-0.6c-0.9-0.4-1.6-1-2-1.7c-0.5-0.7-0.7-1.5-0.7-2.3c0,0,0,0,0-0.1c0.1,1.2,0.5,2.3,1.4,3.1
								c0.4,0.3,0.9,0.5,1.4,0.7c0.1,0.1,0.2,0.1,0.3,0.2c0.9,0.5,2,0.6,3.1,0.5s2.2-0.2,3.3-0.6c1.1-0.4,2.2-1,3.3-1.5
								s2.1-1.1,2.9-2c0.1,0,0.1-0.1,0.1-0.1c0.1-0.1,0.3-0.2,0.4-0.3c0.6-0.4,0.9-0.9,1.4-1.4C103.1,29.4,103.5,29.1,103.8,28.7z"
								/>
							<path class="st1" d="M102.1,24.5L102.1,24.5c-0.1-0.1-0.1-0.1-0.1-0.2C102,24.4,102,24.4,102.1,24.5z"/>
							<path class="st1" d="M101.9,24.3C101.9,24.2,101.9,24.2,101.9,24.3c-0.2-0.2-0.2-0.3-0.3-0.4l-0.1-0.2c0,0,0-0.1,0-0.2v-0.2
								c-0.1-0.5-0.1-1.1-0.2-1.6c-0.1-0.3-0.1-0.5-0.2-0.7c0-0.1-0.1-0.3-0.1-0.4v-0.1c0,0,0,0,0-0.1c0-0.6,0.1-1.1-0.1-1.7
								c-0.1-0.1-0.2-0.3-0.3-0.4c-0.1-0.2-0.1-0.5-0.1-0.7c-0.1-0.6-0.2-1.3-0.3-2v-0.5c0-0.5,0-1-0.1-1.4
								c-0.1-0.2-0.1-0.4-0.2-0.6c0,0-0.1-0.1-0.1-0.2c0,0,0,0,0-0.1s0-0.2,0-0.3c0.4,0.8,0.6,1.8,0.8,2.9c0,0.1,0,0.2,0,0.3
								l1.1,7.9C101.8,23.9,101.8,24.1,101.9,24.3z"/>
							<path class="st1" d="M99.6,12.1c-0.1-0.1-0.2-0.2-0.3-0.2c-0.1-0.2-0.2-0.4-0.4-0.6c0.1,0.1,0.2,0.2,0.3,0.3
								C99.4,11.8,99.5,11.9,99.6,12.1z"/>
							<path class="st1" d="M96.5,10.2c0.5,0,1,0.2,1.4,0.4c-0.4-0.1-0.9-0.1-1.3-0.2L96.5,10.2C96.5,10.3,96.5,10.3,96.5,10.2z"/>
							<path class="st1" d="M96.1,30.1L96.1,30.1c-1-0.1-1.7-0.5-2.2-1c-0.6-0.6-1-1.6-1.2-2.9l-0.2-1.6c0.1,0.2,0.2,0.4,0.3,0.6v1
								c0,0.5,0.3,1.1,0.5,1.6c0.3,0.8,0.9,1.4,1.6,1.8C95.3,29.8,95.7,30,96.1,30.1z"/>
							<path class="st1" d="M95.6,10.2C95.6,10.2,95.5,10.2,95.6,10.2c-0.1,0.1-0.2,0.1-0.3,0.1c-0.3,0.1-0.7,0.1-1,0.1
								c-0.2,0-0.3,0.1-0.4,0.2h-0.1c-0.4,0.1-0.8,0.2-1.1,0.4c-0.1,0.1-0.3,0.2-0.4,0.3l-0.1,0.1h-0.1c-0.2,0.1-0.3,0.2-0.5,0.3
								c0,0,0,0,0.1-0.1C92.9,10.6,94.1,10.2,95.6,10.2z"/>
							<path class="st1" d="M92.6,32.3c0.1,0,0.2,0,0.3,0C92.9,32.3,92.7,32.3,92.6,32.3z"/>
							<path class="st1" d="M92.4,32.2L92.4,32.2c-0.2,0-0.3-0.1-0.3-0.1c-0.1-0.3-0.1-0.7-0.2-1c-0.5-1.2-1-2.1-2.2-2.6
								s-2.7-0.3-3.6,0.4l0,0c0.1-0.1,0.2-0.2,0.4-0.3c0.5-0.4,1.1-0.5,1.8-0.5c1.1,0,2,0.4,2.7,1.1C91.7,30,92.2,30.9,92.4,32.2z"
								/>
							<path class="st1" d="M92.3,22.2c-0.1,0.3-0.1,0.6-0.1,0.9l-0.6-3.9c0.1,0.1,0.1,0.3,0.2,0.4c0,0.1,0.1,0.1,0.1,0.2
								C92,20,92,20.3,92,20.5v0.6c0,0.2,0,0.5,0.1,0.7C92.1,22,92.2,22.1,92.3,22.2z"/>
							<path class="st1" d="M91.6,18.1v0.1c-0.1,0.1-0.1,0.2-0.1,0.3v0.1l-0.2-1.2c-0.1-0.5-0.2-0.8-0.3-0.9c0,0,0,0,0-0.1h0.1
								c0.1,0.1,0.1,0.1,0.2,0.2v0.5C91.3,17.5,91.5,17.8,91.6,18.1z"/>
							<path class="st0" d="M91.1,35.9v2.5H0.3c-0.1,0-0.1-0.1-0.1-0.1V23.2h2c0,0.1,0,0.1,0,0.2c0.1,0.4,0.2,0.8,0.4,1.2
								c0.1,0.3,0.2,0.6,0.4,0.9s0.4,0.5,0.6,0.7c0.2,0.4,0.6,0.9,1.1,1.2c0.1,0,0.1,0.1,0.2,0.1l0,0c0.7,0.5,1.6,0.9,2.7,1.2
								C7.9,28.9,8.2,29,8.5,29c0,0,0,0,0.1,0c0.2,0,0.4,0,0.6,0.1c0.2,0.3,0.6,0.5,1.1,0.5c0.3,0,0.5-0.1,0.7-0.2
								c0.2,0.1,0.3,0.1,0.5,0.1h0.3c0.2,0.1,0.4,0.1,0.6,0.1c0.4,0,0.8-0.1,1-0.4c0.1,0,0.2,0,0.3,0l0,0c0.2,0.1,0.5,0.3,0.8,0.3
								c0.6,0,1-0.2,1.2-0.6c0.1,0,0.1,0,0.2-0.1H16c0.3,0,0.7,0,1-0.2c0.3-0.1,0.6-0.3,1-0.5l0,0c0.8-0.3,1.5-0.7,2.1-1.2
								c0.2-0.1,0.3-0.2,0.5-0.4c0.7-0.5,1.4-1.2,2-1.9c1.1-1.3,1.9-2.8,2.4-4.5l1.9,0.6l-1.2,3.9c-0.1,0.4-0.3,0.7-0.4,0.9
								c-0.2,0.2-0.4,0.4-0.6,0.6c-0.2,0.1-0.3,0.1-0.4,0.2c-0.1,0-0.1,0.1-0.1,0.1c-0.1,0.1-0.1,0.1-0.2,0.2s-0.1,0.1-0.2,0.2
								c-0.2,0.2-0.4,0.3-0.4,0.6c-0.1,0.3,0,0.6,0.3,0.8c0.3,0.2,0.8,0.3,1.4,0.3h1.1h7.1c0.8,0,1.3-0.1,1.7-0.2
								c0.3-0.2,0.6-0.4,0.7-0.7c0.1-0.2,0.1-0.3,0-0.4s-0.2-0.2-0.3-0.3c0-0.1,0-0.3-0.1-0.4c-0.2-0.3-0.5-0.5-0.7-0.8l0,0
								c0-0.1,0-0.1,0-0.2c0-0.3,0-0.5,0.1-0.8l2.3-7.3v0.1c0.3-0.9,0.6-1.6,1.1-2c0.1-0.1,0.2-0.2,0.4-0.3c0.2,0,0.3-0.1,0.4-0.2
								l0,0c0,0,0.1,0,0.2,0c0.2,0.1,0.5,0.1,0.7,0l0,0c0,0,0.1,0,0.1,0.1c0.1,0.1,0.2,0.2,0.2,0.3c0.3,0.4,0.3,0.7,0.3,1.1
								c0,0.1-0.1,0.2-0.1,0.3L39,20l-0.1,0.1c-0.2,0.4-0.4,1-0.5,1.5L38.2,22c-0.4,1.1-0.6,2.1-0.6,3c0,0.3,0,0.6,0.1,1
								c0,0.3,0.1,0.6,0.3,0.9c0.1,0.1,0.1,0.2,0.2,0.3c0.2,0.3,0.5,0.6,0.8,0.8c1,0.7,2.2,1.1,3.8,1.1c1.1,0,2.1-0.1,2.9-0.5
								c0.1,0,0.3-0.1,0.4-0.1c0.7-0.3,1.2-0.7,1.7-1.1l0,0c0.2,0,0.2-0.2,0.3-0.3c0-0.1,0.1-0.1,0.1-0.1l0.6,0.1
								c-0.3,0.5-0.2,1.2,0.5,1.3c0.2,0.2,0.5,0.3,0.8,0.3s0.4-0.1,0.6-0.2c0.2,0.1,0.3,0.1,0.5,0.1h0.3c0.1,0,0.1,0,0.2,0
								c0.1,0,0.3,0,0.4-0.1h0.6h3.4c0.2,0.1,0.4,0.1,0.6,0.1c0.1,0,0.3,0,0.4-0.1l0,0h0.7h0.7h0.3c0.2,0,0.4,0,0.5,0l0,0
								c0.1,0,0.2,0,0.2,0c0.2,0,0.4,0,0.5-0.1c0.1,0,0.3-0.1,0.4-0.1c0,0,0.1,0,0.1-0.1c0.1,0,0.2-0.1,0.3-0.2l0,0
								c0.1-0.1,0.2-0.3,0.3-0.4s0.1-0.3,0-0.4s-0.2-0.3-0.4-0.4c0-0.1-0.1-0.1-0.2-0.1c-0.1-0.2-0.2-0.3-0.4-0.4
								c-0.1-0.2-0.2-0.4-0.2-0.6c0-0.3,0-0.5,0.1-0.8l0.9-3l0.1-0.3c0.2-0.4,0.3-0.9,0.4-1.3l1-3.1c0.2-0.7,0.6-1.2,0.9-1.5
								c0.1-0.1,0.2-0.1,0.3-0.2c0.1-0.1,0.1-0.1,0.2-0.1c0,0,0,0,0.1,0c0.5,0,0.9-0.1,1.3-0.2l0.3,0.3c0.1,0,0.1,0.1,0.2,0.2
								c0,0.1,0,0.1,0,0.1c0,0.1-0.1,0.2-0.1,0.3c-0.6,1.7-1.4,3.3-1.9,5.1c-0.1,0.5-0.2,1-0.3,1.4s-0.2,0.7-0.3,1.1
								C63,23.8,63,23.8,63,24v0.4c0,0.1,0,0.1,0,0.1v0.6v0.7c0,0.3,0,0.6,0.2,0.9c0.1,0.1,0.2,0.3,0.3,0.4c0.2,0.4,0.5,0.8,0.9,1
								c0.2,0.1,0.4,0.3,0.6,0.4s0.3,0.2,0.5,0.2c0.6,0.4,1.4,0.6,2.2,0.5c0.1,0,0.3,0,0.5,0c0.6,0,1.1,0,1.6-0.1
								c0.3,0,0.6-0.1,0.9-0.2s0.5-0.2,0.8-0.3c0.5-0.2,0.9-0.5,1.3-0.8c0.1,0,0.2-0.1,0.2-0.1c0.2-0.1,0.3-0.2,0.3-0.4
								c0.1-0.1,0.2-0.2,0.3-0.3c0.5-0.7,0.7-1.4,0.7-2.1H75c0,0.2,0,0.5,0,0.7c0.1,0.6,0.2,1.2,0.4,1.7c0.4,1,1.6,1.6,2.6,2
								c0.2,0.1,0.3,0,0.4,0c0.6,0.2,1.2,0.2,1.9,0.2c0.1,0,0.2,0,0.2,0c0.5,0,1,0,1.5-0.1c0.1,0,0.2-0.1,0.3-0.1
								c0.4-0.1,0.8-0.2,1.2-0.4l2.3,0.3c0,0-0.1,0-0.1,0.1c-0.6,0.5-0.9,1.2-0.8,2.2l0,0c0,0,0,0,0,0.1c0,0.8,0.2,1.6,0.7,2.3
								c0.4,0.7,1.1,1.3,2,1.7C88.8,35.7,89.9,35.9,91.1,35.9z"/>
							<path class="st1" d="M90.5,12.8c0,0.2-0.1,0.3-0.1,0.4c-0.2,0.2-0.4,0.4-0.6,0.7c-0.1,0.2-0.2,0.5-0.2,0.7
								c-0.1,0.1-0.2,0.2-0.2,0.3C89.7,14.1,90,13.4,90.5,12.8z"/>
							<path class="st1" d="M89.7,16.7c-0.1,0.1-0.2,0.1-0.3,0.1c-0.2,0-0.3-0.2-0.3-0.6c0-0.1,0-0.2,0-0.2c0-0.1,0-0.3,0.1-0.4
								c0,0.1,0,0.2,0.1,0.4C89.3,16.2,89.4,16.6,89.7,16.7z"/>
							<path class="st1" d="M87.4,14.6c0,0.4,0,0.7-0.1,1.1c-0.1,0.4-0.2,0.8-0.3,1.1l-2.3,7.1c0,0.1-0.1,0.2-0.1,0.4
								c0,0.1,0,0.2,0,0.3c-0.1,0-0.1,0-0.1,0v-1c0-0.2,0-0.4,0.1-0.5V23c0.1,0,0.1-0.1,0.1-0.2c0.1-0.1,0.1-0.2,0.1-0.4
								c0.3-0.2,0.4-0.5,0.5-0.8c0.3-1.4,1-2.6,1.4-4c0.4-1.6,0.5-3.3,0.1-4.9c-0.1-0.4-0.2-0.8-0.4-1.1
								C87.1,12.4,87.4,13.3,87.4,14.6z"/>
							<path class="st1" d="M86.5,24.4c0.1,0.1,0.1,0.3,0.1,0.5c0,0.7-0.2,1.4-0.7,2.1c-0.2,0.2-0.4,0.5-0.7,0.7
								c0.1-0.1,0.1-0.2,0.2-0.4c0-0.1,0.1-0.2,0.2-0.3c0.2-0.3,0.4-0.5,0.5-0.7c0.2-0.3,0.3-0.6,0.4-1c0-0.2,0-0.4-0.1-0.6
								s-0.3-0.4-0.5-0.4c0.1-0.1,0.2-0.2,0.2-0.2C86.3,24.1,86.4,24.2,86.5,24.4z"/>
							<path class="st1" d="M84.5,27.9c0.2,0.1,0.4,0,0.6-0.1c-0.4,0.3-0.8,0.6-1.3,0.8c-0.4,0.2-0.8,0.3-1.2,0.4
								c0.2-0.1,0.3-0.2,0.5-0.4C83.6,28.5,84.1,28.2,84.5,27.9z"/>
							<path class="st1" d="M85.2,10.5c-0.3-0.1-0.6-0.2-1-0.2h-0.4c-1.2-0.3-2.7-0.4-4,0c0.9-0.3,1.8-0.5,2.7-0.5
								C83.6,9.8,84.5,10,85.2,10.5z"/>
							<path class="st1" d="M80.8,29.2c-0.1,0-0.2,0-0.2,0c-0.7,0-1.3-0.1-1.9-0.2c0.1,0,0.1,0,0.2-0.1C79.5,29,80.2,29.2,80.8,29.2
								z"/>
							<path class="st1" d="M76.8,19.7L76.8,19.7c0,0.1,0,0.1-0.1,0.2L76.8,19.7z"/>
							<path class="st1" d="M76.5,20.5L76.5,20.5c0,0.1,0,0.1-0.1,0.1L76.5,20.5z"/>
							<path class="st1" d="M75.2,13.5C75.2,13.5,75.2,13.6,75.2,13.5C75,13.6,75,13.7,75,13.7c0-0.2-0.1-0.3-0.1-0.5
								c-0.1-0.2-0.1-0.3-0.2-0.5c0-0.1-0.1-0.2-0.2-0.3c-0.1-0.4-0.3-0.9-0.6-1.2C74.6,11.8,75.1,12.6,75.2,13.5z"/>
							<path class="st1" d="M74.5,17.6l-1.9,6c0.2-0.9,0.5-1.7,0.7-2.6s0.5-1.6,0.8-2.4c0.1-0.3,0.2-0.6,0.3-0.9L74.5,17.6z"/>
							<path class="st1" d="M74.4,24.1c0.1,0.1,0.1,0.3,0.1,0.5c0,0.7-0.2,1.4-0.7,2.1c-0.1,0.1-0.2,0.2-0.3,0.3
								c0.1-0.1,0.1-0.3,0.1-0.4c0.2-0.4,0.4-0.8,0.5-1.2c0-0.1,0-0.1,0-0.2c0.5-0.1,0.4-1-0.2-1c-0.1,0-0.2,0-0.2,0.1
								c0,0,0,0,0-0.1c0.2-0.3,0.4-0.4,0.4-0.4C74.2,23.8,74.3,23.9,74.4,24.1z"/>
							<path class="st1" d="M73.6,10.9c-0.1-0.1-0.2-0.2-0.3-0.2c-0.7-0.3-1.5-0.4-2.3-0.5c-0.9-0.1-1.8,0-2.7,0.1
								c-0.3,0.1-0.5,0.1-0.8,0.2c0.9-0.4,1.9-0.6,3-0.6C71.7,9.9,72.7,10.2,73.6,10.9z"/>
							<path class="st1" d="M72.6,27.7c0.1-0.1,0.2-0.1,0.4-0.2c-0.4,0.3-0.8,0.6-1.3,0.8c-0.2,0.1-0.5,0.2-0.8,0.3
								c0.2-0.1,0.4-0.2,0.6-0.3c0.2-0.1,0.4-0.2,0.6-0.3c0.1,0,0.3-0.1,0.4-0.2C72.6,27.7,72.6,27.7,72.6,27.7z"/>
							<path class="st1" d="M72.6,24.5h-0.2c0-0.1,0.1-0.3,0.1-0.4C72.5,24.3,72.5,24.4,72.6,24.5z"/>
							<path class="st1" d="M69.3,28.7c0.2,0.1,0.5,0.1,0.7,0.1c-0.5,0.1-1.1,0.1-1.6,0.1c-0.2,0-0.3,0-0.5,0c0.4,0,0.9-0.1,1.2-0.3
								C69.2,28.7,69.2,28.7,69.3,28.7z"/>
							<path class="st1" d="M66.3,11.1c-0.1,0.1-0.2,0.2-0.3,0.3c-0.2,0.1-0.3,0.2-0.4,0.2C65.8,11.4,66.1,11.2,66.3,11.1z"/>
							<path class="st1" d="M65.3,28.2c-0.2-0.1-0.4-0.2-0.6-0.4c-0.4-0.3-0.7-0.6-0.9-1c0.1,0.1,0.1,0.1,0.2,0.1l0.3,0.3
								C64.5,27.6,64.9,28,65.3,28.2z"/>
							<path class="st1" d="M64.9,12.2C64.9,12.2,64.9,12.3,64.9,12.2C64.8,12.3,64.8,12.3,64.9,12.2C64.8,12.3,64.8,12.2,64.9,12.2
								z"/>
							<path class="st1" d="M63.9,15.1C64,15.1,64,15.1,63.9,15.1c0,0,0,0.1-0.1,0.1C63.9,15.2,63.9,15.1,63.9,15.1z"/>
							<path class="st1" d="M63.7,13C63.7,13.1,63.7,13.1,63.7,13c-0.1-0.2-0.1-0.4-0.2-0.6c-0.1-0.3-0.2-0.6-0.4-0.9H63
								c0-0.1-0.1-0.1-0.1-0.2c0-0.2-0.1-0.3-0.2-0.4l0,0C63.3,11.4,63.6,12.1,63.7,13z"/>
							<path class="st1" d="M63.7,22.3c0,0.3-0.1,0.6-0.1,1c0,0-0.1,0.1-0.2,0.1C63.5,23.1,63.5,22.7,63.7,22.3z"/>
							<path class="st1" d="M63.3,15.5c0.1,0,0.1,0,0.2,0c-0.3,0.3-0.7,0.9-0.9,1.5l-1,3.1c0.2-0.6,0.3-1.1,0.5-1.7
								c0.1-0.2,0-0.4,0-0.5c0.1-0.1,0.1-0.3,0.1-0.5c0.2-0.3,0.2-0.5,0.2-0.8c0.1-0.1,0.1-0.2,0.2-0.3C63,16.2,63.2,15.9,63.3,15.5
								z"/>
							<path class="st1" d="M62.5,10.7c-0.1-0.1-0.3-0.2-0.5-0.2c-0.1-0.1-0.1-0.2-0.2-0.2C62.1,10.4,62.3,10.5,62.5,10.7z"/>
							<path class="st1" d="M61.6,10.2C61.7,10.2,61.7,10.2,61.6,10.2C61.7,10.2,61.7,10.2,61.6,10.2L61.6,10.2z"/>
							<path class="st1" d="M61.4,10.1L61.4,10.1c-0.2,0-0.2-0.1-0.3-0.1C61.2,10,61.3,10,61.4,10.1z"/>
							<path class="st1" d="M61.2,27.1c0.1,0.1,0.1,0.3,0,0.4c-0.1,0.2-0.2,0.3-0.3,0.4c0.3-0.4,0.2-1-0.2-1.2c0-0.1,0-0.1-0.1-0.1
								c0,0,0.1,0.1,0.2,0.1C61,26.8,61.1,27,61.2,27.1z"/>
							<path class="st1" d="M61.2,21.7l-0.9,3c-0.1,0.3-0.1,0.5-0.1,0.8s0.1,0.4,0.2,0.6C60.2,26,60.1,26,60,26
								c0-0.1-0.1-0.3-0.1-0.4c-0.1-0.3,0-0.6,0.1-0.8c0.2-0.7,0.4-1.3,0.7-2C60.9,22.4,61,22.1,61.2,21.7z"/>
							<path class="st1" d="M60.6,28.1C60.6,28.2,60.6,28.2,60.6,28.1c-0.2,0.1-0.3,0.1-0.5,0.1c0.1,0,0.1-0.1,0.2-0.1
								C60.5,28.2,60.5,28.2,60.6,28.1z"/>
							<path class="st1" d="M59.2,28.3l0.1,0.1c-0.2,0-0.3,0-0.5,0h-0.3c0.2,0,0.4-0.1,0.5-0.2C59.1,28.3,59.1,28.3,59.2,28.3z"/>
							<path class="st1" d="M58.5,28.4h-0.7c0.2,0,0.3-0.1,0.4-0.1C58.3,28.4,58.4,28.4,58.5,28.4z"/>
							<path class="st1" d="M57.9,10c0,0,0.1,0,0.2,0C58,10,58,10,57.9,10L57.9,10z"/>
							<path class="st1" d="M57.8,28.4h-0.7c0.1,0,0.1-0.1,0.2-0.1C57.5,28.4,57.6,28.4,57.8,28.4z"/>
							<path class="st1" d="M56.1,28.4h-3.4c0.1,0,0.2-0.1,0.3-0.1h0.1C54.1,28.2,55.1,28.4,56.1,28.4z"/>
							<path class="st1" d="M52.7,28.4h-0.6c0.1,0,0.1-0.1,0.2-0.1C52.4,28.4,52.5,28.4,52.7,28.4z"/>
							<path class="st1" d="M49.5,14.7v0.1c0-0.4-0.1-0.8-0.2-1.2c-0.3-0.7-0.7-1.5-1.2-2.1s-1.1-0.9-1.8-1.1
								c-1.4-0.5-3.2-0.4-4.6,0.2c-0.8,0.3-1.5,0.9-2.2,1.4c-0.3,0.3-0.5,0.7-0.9,0.9c0,0-0.1,0-0.1,0.1c0.9-1.1,1.8-2,2.9-2.5
								c0.9-0.4,2-0.6,3.2-0.6c1.5,0,2.6,0.4,3.5,1.3C49,12.1,49.5,13.2,49.5,14.7z"/>
							<path class="st1" d="M48.8,24.3c0.1,0.1,0.1,0.3,0.1,0.5c0,0.6-0.1,1.2-0.5,1.8c0-0.1,0-0.2,0-0.4c0.2-0.2,0.3-0.5,0.1-0.8
								c0.5-0.2,0.5-1.1-0.3-1.1l0,0c0.2-0.2,0.3-0.3,0.3-0.3C48.6,24,48.7,24.1,48.8,24.3z"/>
							<path class="st1" d="M48.8,17.9l-1.8,6c0,0.1-0.1,0.2-0.1,0.4c0,0.1,0,0.2,0,0.3l0,0c0-0.2-0.1-0.3-0.2-0.4
								c0.2-0.7,0.3-1.5,0.5-2.2c0.3-1.1,0.7-2.3,1.2-3.3c0.1-0.1,0.1-0.2,0.1-0.3C48.6,18.2,48.7,18,48.8,17.9z"/>
							<path class="st1" d="M48.3,26.8C48.3,26.8,48.3,26.9,48.3,26.8c-0.1,0.1-0.1,0.2-0.2,0.2v-0.1C48.2,26.9,48.2,26.8,48.3,26.8
								z"/>
							<path class="st1" d="M47.5,27.4c0.1,0,0.2,0,0.3,0c-0.4,0.4-1,0.9-1.7,1.1c-0.1,0.1-0.3,0.1-0.4,0.1c0.7-0.3,1.2-0.7,1.7-1.2
								H47.5z"/>
							<path class="st1" d="M47.8,24.7C47.7,24.7,47.7,24.8,47.8,24.7C47.7,24.8,47.7,24.8,47.8,24.7C47.7,24.7,47.7,24.7,47.8,24.7
								z"/>
							<path class="st1" d="M39.8,28.2c1.7,0.7,4.1,1.1,5.9,0.4c-0.8,0.3-1.8,0.5-2.9,0.5c-1.6,0-2.8-0.4-3.8-1.1
								c-0.3-0.2-0.6-0.5-0.8-0.8C38.7,27.6,39.3,27.9,39.8,28.2z"/>
							<path class="st1" d="M40.6,5.3c0,0.5-0.1,1-0.3,1.5L38.5,13c-0.1,0.1-0.2,0.1-0.3,0.2c0.4-1.5,0.9-3,1.5-4.5
								c0.1-0.3,0.1-0.6,0-0.8c0.3-0.6,0.5-1.4,0.6-2.1c0.1-0.6,0.2-1.2-0.1-1.8s-1-0.9-1.6-1.2c-0.7-0.3-1.5-0.4-2.3-0.3
								c-0.7,0.1-1.3,0.3-2,0.3c-0.6,0-1.3,0-1.8,0c1.3-0.4,2.7-0.5,4.1-0.5c1.4,0,2.4,0.3,3.1,0.8S40.6,4.3,40.6,5.3z"/>
							<path class="st1" d="M40.3,16.5v0.1c0,0.7-0.3,1.5-0.6,2.2c-0.1,0.3-0.3,0.6-0.4,0.9c-0.2,0.1-0.2,0.1-0.3,0.3l1.2-3.2
								C40.3,16.7,40.3,16.6,40.3,16.5z"/>
							<path class="st1" d="M39.7,15C39.8,15,39.8,15,39.7,15C39.8,15,39.7,15,39.7,15L39.7,15z"/>
							<path class="st1" d="M39,15c-0.1,0-0.1,0-0.2,0c0,0,0,0,0.1-0.1C38.9,15,38.9,15,39,15z"/>
							<path class="st1" d="M38.2,15.3c0.1,0,0.1,0,0.2,0c-0.1,0.1-0.2,0.2-0.4,0.3c-0.5,0.4-0.8,1.1-1.1,2v-0.1l-2.3,7.3
								c-0.1,0.3-0.1,0.5-0.1,0.8c0,0.1,0,0.1,0,0.2c-0.1-0.1-0.2-0.1-0.2-0.2c-0.1-0.2,0.1-0.5,0.2-0.7c0.1-0.2,0.1-0.5,0.2-0.8
								c0.2-0.6,0.5-1.2,0.6-1.8c0.3-1.3,0.7-2.5,1.1-3.8c0.1-0.1,0-0.2,0-0.3c0.2-0.5,0.5-1,0.6-1.5c0-0.2,0.1-0.3,0.1-0.4
								c0.3-0.1,0.5-0.4,0.5-0.7l0.1-0.1c0.1,0,0.1,0,0.2-0.1l0.1-0.1C38.1,15.3,38.1,15.3,38.2,15.3z"/>
							<path class="st1" d="M38.2,22l0.2-0.4c0,0.1,0,0.2-0.1,0.3c0,0.2-0.1,0.5-0.2,0.7c-0.3,0.8-0.3,1.6-0.4,2.4c0,0.3,0,0.6,0,1
								c-0.1-0.3-0.1-0.6-0.1-1C37.6,24.1,37.8,23.1,38.2,22z"/>
							<path class="st0" d="M36.5-0.3v2.6c-1.4,0-2.8,0.2-4.1,0.5c0,0,0,0-0.1,0s-0.2,0-0.3,0.1c0,0,0,0-0.1,0c-1.2,0.4-2,0.8-2,1.3
								c-0.1,0.3-0.1,0.5,0,0.6C30,5,30.2,5.1,30.4,5c0,0.1,0.1,0.1,0.1,0.1C30.8,5.3,31,5.4,31,5.6c0.1,0.1,0.2,0.3,0.2,0.6
								c0,0.1,0,0.3-0.1,0.5l-4.3,14.1l-1.9-0.6c0.1-0.2,0.1-0.5,0.2-0.7c0.1-0.5,0.2-0.9,0.2-1.3c0.1-0.2,0.1-0.3,0.1-0.5l0,0
								c0.2-0.3,0-0.6,0-0.9c0-0.1,0-0.3,0-0.4v-0.1c-0.2-1.8-0.9-3.2-2.2-4.3l-0.1-0.1c-0.1-0.3-0.4-0.5-0.7-0.5l0,0
								c-0.2-0.1-0.5-0.3-0.8-0.4c-0.6-0.3-1.4-0.5-2.2-0.7l0,0c-0.7-0.3-1.5-0.4-2.2-0.3c-1-0.3-2-0.1-3,0.1
								c-0.5,0.1-1,0.1-1.5,0.2c-0.2-0.1-0.3-0.1-0.5-0.1c-0.4,0-0.8,0.2-1,0.5l0,0c-0.4,0.1-0.7,0.2-1.1,0.4
								c-0.1,0-0.2,0.1-0.2,0.1c-0.1,0-0.2,0.1-0.3,0.1c-0.1,0.1-0.2,0.1-0.3,0.2H9.2c-0.4,0-0.7,0.2-1,0.3s-0.5,0.3-0.8,0.5
								c-0.2,0.2-0.3,0.3-0.4,0.5c0,0.1,0,0.1,0,0.1c-0.2,0.1-0.5,0.3-0.7,0.5c-0.1,0.1-0.3,0.3-0.4,0.5C5.7,14,5.7,14,5.7,14
								s-0.1,0-0.1,0.1c-0.3,0.2-0.7,0.4-0.9,0.7C4.4,15.2,4,15.6,3.8,16c-0.3,0.4-0.5,0.9-0.6,1.4c-0.1,0.3-0.1,0.7-0.1,1
								c0,0.2-0.1,0.3-0.2,0.5l0,0c-0.5,0.9-0.5,1.9-0.4,2.9c-0.2,0.3-0.3,0.7-0.2,1c0,0.1,0,0.3,0,0.4h-2V-0.2c0,0,0-0.1,0.1-0.1
								H36.5z"/>
							<path class="st1" d="M35.6,27.3c0.1,0.1,0.1,0.2,0,0.4c-0.1,0.3-0.4,0.5-0.7,0.7c-0.4,0.1-0.9,0.2-1.7,0.2h-7.1
								c0.3,0,0.6-0.2,0.8-0.4c1,0.2,2,0.4,3,0.3c0.2,0,0.4-0.1,0.6-0.2c0.2,0.1,0.4,0.2,0.7,0.2c1.1-0.1,2.2,0,3.3-0.2
								c0.6-0.2,0.9-0.8,0.8-1.3C35.5,27.1,35.6,27.2,35.6,27.3z"/>
							<path class="st1" d="M32,3c-0.1,0.1-0.2,0.1-0.2,0.2c-0.1,0-0.1,0-0.1,0c-0.4,0-0.7,0.2-0.9,0.5c-0.5,0.2-0.6,0.6-0.5,1
								c0.1,0.2,0.1,0.3,0.2,0.4c-0.3,0.1-0.5,0-0.5-0.2c-0.1-0.1-0.1-0.3,0-0.6C30,3.7,30.7,3.3,32,3z"/>
							<path class="st1" d="M31.3,6.2c-0.1,0.1-0.1,0.3-0.1,0.5C31,6.9,31,7.3,31,7.6c-0.1,0.1-0.1,0.2-0.1,0.3
								c-0.6,1.3-0.7,2.7-1.1,4.1c-0.2,1-0.6,1.9-0.9,2.9c-0.3,1.1-0.7,2-1,3v0.4c-0.2,0.1-0.3,0.3-0.3,0.5
								c-0.1,0.7-0.4,1.3-0.6,1.9c-0.2,0.7-0.3,1.4-0.5,2.1s-0.6,1.3-0.7,2c-0.1,0.1-0.1,0.3-0.1,0.4c-0.2,0.1-0.3,0.3-0.5,0.4
								c0.1-0.2,0.3-0.6,0.4-0.9l1.2-3.9l4.3-14.1c0.1-0.2,0.1-0.4,0.1-0.5c0-0.3-0.1-0.5-0.2-0.6c-0.1-0.2-0.2-0.3-0.4-0.4h0.1
								c0.1,0.2,0.3,0.2,0.5,0.3C31.1,5.7,31.2,6,31.3,6.2z"/>
							<path class="st1" d="M26.1,28.6H25c-0.6,0-1.1-0.1-1.4-0.3c-0.3-0.2-0.4-0.5-0.3-0.8c0.1-0.2,0.2-0.4,0.4-0.6
								c0,0.1,0,0.1,0,0.2v0.5c0,0.1,0,0.3,0.1,0.4l0.1,0.1l0.1,0.1l0.1,0.1c0,0,0.1,0.1,0.2,0.1s0.1,0,0.1,0H25
								c0.1,0,0.1-0.1,0.2-0.1s0.1,0,0.1,0C25.5,28.5,25.7,28.6,26.1,28.6z"/>
							<path class="st1" d="M25.4,18.2c0,0.4-0.1,0.9-0.2,1.3c-0.1,0.2-0.1,0.5-0.2,0.7c-0.5,1.7-1.3,3.1-2.4,4.5
								c-0.6,0.7-1.2,1.3-2,1.9c0.7-0.5,1.2-1.1,1.5-1.9c0.1,0,0.2-0.1,0.3-0.2c1-0.9,1.7-2.1,2.2-3.4c0-0.1,0-0.1,0-0.1
								c0.4-0.7,0.6-1.5,0.6-2.3C25.2,18.5,25.3,18.4,25.4,18.2z"/>
							<path class="st1" d="M23.1,11.9c1.4,1.1,2.1,2.5,2.2,4.3c-0.1-0.5-0.4-1.1-0.6-1.6c0.1-0.5-0.1-1-0.5-1.2
								c0-0.4-0.3-0.9-0.8-1c-0.1-0.1-0.2-0.2-0.3-0.3C23.1,12,23.1,11.9,23.1,11.9C23.1,11.8,23.1,11.9,23.1,11.9z"/>
							<path class="st1" d="M22.3,11.3c-0.1,0-0.1,0-0.2,0s-0.1-0.1-0.2-0.1l-0.1-0.1c-0.1-0.1-0.2-0.1-0.3-0.2
								C21.8,11,22.1,11.1,22.3,11.3z"/>
							<path class="st1" d="M21.5,10.9C21.4,10.9,21.4,10.9,21.5,10.9c-0.2-0.1-0.3-0.1-0.5-0.1c-0.1,0-0.1,0-0.1,0
								c-0.2-0.1-0.4-0.1-0.6-0.2c-0.3-0.1-0.6-0.3-1-0.4C20.2,10.4,20.9,10.6,21.5,10.9z"/>
							<path class="st1" d="M18.8,27.6c0.4-0.2,0.9-0.4,1.2-0.7c-0.7,0.5-1.4,0.8-2.1,1.2C18.3,27.9,18.5,27.7,18.8,27.6z"/>
							<path class="st1" d="M16.4,14.1c-0.1,0.4-0.1,0.7-0.2,1c0.1,0.1,0.1,0.2,0.1,0.3c-0.1,0.7-0.2,1.4-0.4,2
								c0.1,0.2,0.1,0.3,0.1,0.5c-0.1,0.8-0.3,1.6-0.7,2.4s-0.7,1.5-0.9,2.3c-0.1,0.2-0.2,0.3-0.3,0.3c-0.1,0.4-0.1,0.8-0.2,1.2
								c-0.1,0.3-0.2,0.4-0.4,0.4c0,0.1,0,0.2,0,0.3c-0.1,0.3-0.3,0.5-0.6,0.6c0,0.2-0.1,0.4-0.1,0.6l0,0c-0.2,0.2-0.5,0.3-0.7,0.3
								c-0.3,0-0.5-0.1-0.7-0.3c0-0.2,0-0.4,0-0.5c0-0.6,0-1.1,0-1.7c0-1.1,0.6-2.2,0.8-3.3c0-0.2,0.1-0.3,0.1-0.5s0-0.4,0.1-0.7
								c0,0,0,0,0-0.1c0.1-0.2,0.1-0.4,0.3-0.6c0.2-0.3,0.3-0.4,0.4-0.7c0.1-0.3,0.1-0.6,0.2-0.9c0.2-0.6,0.5-1.2,0.8-1.8
								s0.5-1.2,0.9-1.7c0.3-0.3,0.6-0.5,1-0.4C16.3,13.4,16.4,13.8,16.4,14.1z"/>
							<path class="st1" d="M13.4,29.1l0.1,0.1c-0.1,0-0.2,0-0.3,0C13.4,29.2,13.4,29.1,13.4,29.1z"/>
							<path class="st1" d="M14.2,10c-0.5,0.1-0.9,0.2-1.4,0.3h-0.1C13.1,10.1,13.6,10,14.2,10z"/>
							<path class="st1" d="M12.8,26c-0.2,0.4-0.5,0.6-0.9,0.5c-0.3-0.1-0.4-0.2-0.5-0.5c0.2,0.2,0.4,0.3,0.7,0.3
								C12.3,26.3,12.5,26.2,12.8,26z"/>
							<path class="st1" d="M11.1,10.7L11,10.8c-0.1,0.1-0.3,0.1-0.4,0.1c-0.3,0.1-0.5,0.2-0.8,0.3l0,0c0.1,0,0.2-0.1,0.2-0.1
								C10.4,10.9,10.8,10.8,11.1,10.7z"/>
							<path class="st1" d="M9.5,11.3C9.5,11.3,9.5,11.4,9.5,11.3c-0.2,0.1-0.2,0.2-0.3,0.2H9.1C9.3,11.4,9.4,11.4,9.5,11.3z"/>
							<path class="st1" d="M9,28.9C9,29,9.1,29,9.1,29.1C9,29,8.8,29,8.6,29C8.8,29,9,28.9,9,28.9z"/>
							<path class="st1" d="M7.1,28.3c0.1,0.2,0.3,0.3,0.5,0.5c-1.1-0.3-2-0.7-2.7-1.2C5.6,27.9,6.3,28.2,7.1,28.3z"/>
							<path class="st1" d="M5.7,14C5.6,14.1,5.6,14.1,5.7,14C5.6,14.1,5.6,14.1,5.7,14C5.6,14.1,5.6,14.1,5.7,14z"/>
							<path class="st1" d="M3,18.4c0,0.1,0,0.1,0,0.2c-0.1,0.1-0.1,0.2-0.2,0.3C2.9,18.7,3,18.5,3,18.4z"/>
						</g>
						<g>
							<path class="st3" d="M104.6,19c-0.1-0.1-0.2-0.2-0.3-0.4c-0.4-0.7-0.9-1.4-1-2.2c-0.1-0.7,0.1-1.6,0.1-2.4"/>
							<path class="st4" d="M22.3,11.3c0.2,0.2,0.5,0.3,0.7,0.5c0,0,0.1,0,0.1,0.1c1.4,1.1,2.1,2.5,2.2,4.3v0.1c0,0.2,0,0.5,0,0.8
								c0,0.2,0,0.4,0,0.5"/>
							<path class="st4" d="M19.4,10.2c0.8,0.2,1.5,0.4,2.2,0.7c0.3,0.1,0.5,0.3,0.8,0.4"/>
							<path class="st4" d="M11.1,10.7c0.5-0.2,1-0.3,1.5-0.4c0.5-0.1,1-0.2,1.5-0.2c0.6-0.1,1.2-0.1,1.8-0.1c1.3,0,2.4,0.1,3.4,0.3
								"/>
							<path class="st4" d="M2.9,18.9c0-0.2,0.1-0.3,0.2-0.5c0.5-1.5,1.2-2.8,2.3-4c0.1-0.1,0.2-0.2,0.2-0.3L5.7,14
								c1-1,2.1-1.9,3.5-2.6c0.1-0.1,0.2-0.1,0.3-0.2c0.1,0,0.2-0.1,0.3-0.1S10,11,10,11c0.4-0.2,0.7-0.3,1.1-0.4"/>
							<path class="st4" d="M13.6,29.2c-0.1,0-0.2,0-0.3,0c-0.4,0-0.8,0.1-1.3,0.1c-1,0-2-0.1-2.9-0.2C9,29,8.8,29,8.6,29
								c-0.3-0.1-0.6-0.1-0.9-0.2c-1.1-0.3-2-0.7-2.7-1.2l0,0c-0.1-0.1-0.2-0.1-0.3-0.2C3.3,26,2.5,24.2,2.5,22v-0.1
								c0-0.7,0.1-1.5,0.3-2.4c0-0.2,0.1-0.3,0.1-0.5"/>
							<path class="st4" d="M25.4,17.6c0,0.2,0,0.4-0.1,0.5c0,0.4-0.1,0.9-0.2,1.3c-0.1,0.2-0.1,0.5-0.2,0.7
								c-0.5,1.7-1.3,3.1-2.4,4.5c-0.6,0.7-1.2,1.3-2,1.9c-0.2,0.1-0.3,0.2-0.5,0.4c-0.7,0.5-1.4,0.8-2.1,1.2l0,0
								c-0.6,0.3-1.3,0.5-2,0.7h-0.1c-0.7,0.2-1.5,0.3-2.2,0.4"/>
							<path class="st4" d="M12.8,26c0.2-0.2,0.5-0.5,0.8-1c0.6-0.9,1.2-2.7,2.1-5.3c0.7-2.3,1.1-4,1.1-5.1c0-0.5-0.1-0.9-0.3-1
								c-0.1-0.4-0.3-0.5-0.6-0.5c-0.3,0-0.6,0.2-0.9,0.5c-0.2,0.2-0.4,0.5-0.7,0.9c-0.6,0.9-1.1,2.5-1.9,4.8c0,0,0,0,0,0.1
								s-0.1,0.2-0.1,0.3c-0.8,2.5-1.2,4.2-1.2,5.3c0,0.5,0.1,0.9,0.3,1.1l0,0c0.2,0.2,0.4,0.3,0.7,0.3C12.3,26.3,12.5,26.2,12.8,26
								L12.8,26z"/>
							<path class="st4" d="M34.6,25.8c0,0.2,0.1,0.4,0.2,0.6c0.1,0.2,0.3,0.3,0.5,0.5l0.1,0.1c0.1,0.1,0.2,0.2,0.3,0.3
								c0.1,0.1,0.1,0.2,0,0.4c-0.1,0.3-0.4,0.5-0.7,0.7c-0.4,0.1-0.9,0.2-1.7,0.2h-7.1H25c-0.6,0-1.1-0.1-1.4-0.3
								c-0.3-0.2-0.4-0.5-0.3-0.8c0.1-0.2,0.2-0.4,0.4-0.6c0.1-0.1,0.2-0.2,0.4-0.2c0.4-0.2,0.7-0.4,0.9-0.7
								c0.1-0.1,0.1-0.2,0.2-0.4c0.1-0.2,0.3-0.6,0.4-0.9l1.2-3.9l4.3-14.1c0.1-0.2,0.1-0.4,0.1-0.5c0-0.3-0.1-0.5-0.2-0.6
								c-0.1-0.2-0.2-0.3-0.4-0.4l-0.1-0.1l0,0c-0.3,0.1-0.5,0-0.5-0.2c-0.1-0.1-0.1-0.3,0-0.6c0-0.6,0.7-1,2-1.3c0,0,0,0,0.1,0
								s0.1,0,0.2-0.1h0.1c0,0,0,0,0.1,0c1.3-0.4,2.7-0.5,4.1-0.5c1.4,0,2.4,0.3,3.1,0.8s1,1.2,1,2.2c0,0.5-0.1,1-0.3,1.5L38.5,13
								v0.1c0-0.1,0.1-0.1,0.1-0.1c0.9-1.1,1.8-2,2.9-2.5c0.9-0.4,2-0.6,3.2-0.6c1.5,0,2.6,0.4,3.5,1.3c0.9,0.9,1.4,2,1.4,3.5v0.1
								c0,0.7-0.1,1.4-0.4,2.1l-0.3,1"/>
							<path class="st4" d="M39.7,15c-0.1,0-0.1,0-0.2,0c-0.1,0-0.2,0-0.4,0H39c-0.1,0-0.1,0-0.2,0l0,0c-0.1,0.1-0.3,0.1-0.4,0.2
								c-0.1,0.1-0.2,0.2-0.4,0.3c-0.5,0.4-0.8,1.1-1.1,2v-0.1l-2.3,7.3c-0.1,0.3-0.1,0.5-0.1,0.8c0,0.1,0,0.1,0,0.2"/>
							<path class="st4" d="M47.8,27.3c-0.4,0.4-1,0.9-1.7,1.1c-0.1,0.1-0.3,0.1-0.4,0.1c-0.8,0.3-1.8,0.5-2.9,0.5
								c-1.6,0-2.8-0.4-3.8-1.1c-0.3-0.2-0.6-0.5-0.8-0.8c-0.3-0.4-0.4-0.8-0.5-1.2c-0.1-0.3-0.1-0.6-0.1-1c0-0.9,0.2-1.9,0.6-3
								l0.2-0.4L39,20l1.2-3.2c0-0.1,0.1-0.2,0.1-0.3c0.1-0.2,0.1-0.4,0.1-0.5c0-0.3-0.1-0.6-0.3-0.7c-0.1-0.1-0.2-0.2-0.3-0.2
								c0,0-0.1,0-0.1-0.1"/>
							<path class="st4" d="M48.3,26.8C48.3,26.8,48.3,26.9,48.3,26.8c-0.1,0.1-0.1,0.2-0.2,0.2c-0.1,0.1-0.2,0.2-0.3,0.3"/>
							<path class="st4" d="M48.2,24.3c0.2-0.2,0.3-0.3,0.3-0.3c0.1,0,0.2,0.1,0.3,0.3c0.1,0.1,0.1,0.3,0.1,0.5
								c0,0.6-0.1,1.2-0.5,1.8c0,0.1-0.1,0.2-0.2,0.3"/>
							<path class="st4" d="M48.8,17.9l-1.8,6c0,0.1-0.1,0.2-0.1,0.4c0,0.1,0,0.2,0,0.3c0,0,0,0.1,0.1,0.1c0.1,0.1,0.2,0.1,0.4,0.1
								c0.1,0,0.2,0,0.2,0s0,0,0.1,0c0.2,0,0.3-0.2,0.4-0.3c0,0,0-0.1,0.1-0.1"/>
							<path class="st4" d="M57.1,28.4h-1h-3.4h-0.6h-1.4h-0.1c-0.6,0-1.1-0.1-1.3-0.3c-0.3-0.2-0.4-0.5-0.3-0.8
								c0.1-0.3,0.3-0.5,0.8-0.8c0.4-0.2,0.7-0.4,0.9-0.7c0.2-0.3,0.4-0.7,0.6-1.3l3.2-10.4c0-0.1,0.1-0.3,0.1-0.5
								c0-0.3-0.1-0.5-0.2-0.6c-0.1-0.1-0.2-0.2-0.4-0.4l-0.1-0.1c-0.2-0.2-0.4-0.4-0.5-0.5s-0.1-0.3,0-0.6c0.1-0.6,0.9-1,2.3-1.4
								c0.7,0.1,1.4,0,2.1,0c0,0,0.1,0,0.2,0c0.6,0,1.2-0.1,1.9-0.1c0.4,0,0.8,0,1.2,0.1c0.1,0,0.2,0,0.3,0.1c0.1,0,0.1,0,0.2,0.1
								h0.1h0.1c0.3,0.1,0.5,0.3,0.7,0.5c0.1,0,0.1,0.1,0.2,0.1l0,0c0.6,0.5,0.9,1.2,1,2.2c0,0.2,0,0.4,0,0.5c0.3-0.5,0.7-0.9,1-1.3
								l0.1-0.1c0.2-0.2,0.5-0.4,0.7-0.6c0.2-0.2,0.5-0.4,0.7-0.5l0,0c0.2-0.1,0.3-0.2,0.5-0.3s0.4-0.2,0.6-0.3
								c0.9-0.4,1.9-0.6,3-0.6c1.3,0,2.3,0.3,3.1,1c0.1,0.1,0.2,0.1,0.2,0.2l0,0l0.1,0.1c0.7,0.6,1.1,1.4,1.3,2.3
								c0.1,0.2,0.1,0.4,0.1,0.7c1-1.5,2-2.7,3.2-3.3c0,0,0,0,0.1,0c0,0,0.1,0,0.1-0.1c0.1-0.1,0.3-0.1,0.4-0.2l0,0
								c0.2-0.1,0.5-0.2,0.8-0.3c0.9-0.3,1.8-0.5,2.7-0.5c1.1,0,1.9,0.2,2.7,0.7"/>
							<path class="st4" d="M59.4,28.4c-0.2,0-0.3,0-0.5,0h-0.3h-0.7h-0.7"/>
							<path class="st4" d="M73.7,24.2L73.7,24.2c0.2-0.4,0.4-0.5,0.4-0.5c0.1,0,0.2,0.1,0.3,0.3c0.1,0.1,0.1,0.3,0.1,0.5
								c0,0.7-0.2,1.4-0.7,2.1c-0.1,0.1-0.2,0.2-0.3,0.3c-0.2,0.2-0.3,0.3-0.5,0.5c-0.4,0.3-0.8,0.6-1.3,0.8
								c-0.2,0.1-0.5,0.2-0.8,0.3s-0.6,0.1-0.9,0.2c-0.5,0.1-1.1,0.1-1.6,0.1c-0.2,0-0.3,0-0.5,0c-0.8,0-1.6-0.2-2.2-0.5
								c-0.2-0.1-0.3-0.1-0.5-0.2s-0.4-0.2-0.6-0.4c-0.4-0.3-0.7-0.6-0.9-1c-0.3-0.5-0.5-1.2-0.5-2c0-0.4,0-0.9,0.1-1.4
								c0.1-0.4,0.2-0.7,0.3-1.1c0-0.2,0.1-0.4,0.2-0.5l2-5.2c0.1-0.3,0.2-0.6,0.2-0.8c0-0.3-0.1-0.6-0.3-0.7
								c-0.2-0.2-0.4-0.3-0.7-0.3c-0.2,0-0.4,0.1-0.6,0.1c-0.1,0.1-0.2,0.1-0.4,0.2c-0.1,0-0.1,0.1-0.2,0.1l-0.1,0.1
								c-0.1,0.1-0.1,0.1-0.2,0.2c-0.3,0.3-0.7,0.9-0.9,1.5l-1,3.1l-0.4,1.3l-0.1,0.3l-0.9,3c-0.1,0.3-0.1,0.5-0.1,0.8
								s0.1,0.4,0.2,0.6v0.1c0.1,0.1,0.2,0.2,0.3,0.4c0,0,0.1,0.1,0.2,0.1c0.2,0.1,0.3,0.3,0.4,0.4c0.1,0.1,0.1,0.3,0,0.4
								c-0.1,0.2-0.2,0.3-0.3,0.4l0,0c-0.1,0.1-0.2,0.1-0.3,0.2c0,0-0.1,0-0.1,0.1c-0.1,0-0.2,0.1-0.4,0.1s-0.5,0.1-0.8,0.1"/>
							<path class="st4" d="M74.5,17.6l-1.9,6v0.1c0,0,0,0,0,0.1s-0.1,0.2-0.1,0.3c0,0.2,0,0.3,0.1,0.4s0.2,0.1,0.4,0.1
								c0.3,0,0.5-0.1,0.6-0.3"/>
							<path class="st4" d="M85.2,10.5c0.3,0.2,0.6,0.4,0.8,0.6c0.2,0.1,0.3,0.3,0.4,0.5c0.6,0.8,1,1.8,1,3c0,0.4,0,0.7-0.1,1.1
								c-0.1,0.4-0.2,0.8-0.3,1.1l-2.3,7.1c0,0.1-0.1,0.2-0.1,0.4c0,0.1,0,0.2,0,0.3c0,0,0,0.1,0.1,0.1c0.1,0.2,0.3,0.2,0.4,0.2
								c0.3,0,0.5-0.1,0.7-0.4c0.1-0.1,0.1-0.1,0.2-0.2s0.2-0.2,0.2-0.2c0.1,0,0.2,0.1,0.3,0.3c0.1,0.1,0.1,0.3,0.1,0.5
								c0,0.7-0.2,1.4-0.7,2.1c-0.2,0.2-0.4,0.5-0.7,0.7l-0.1,0.1c-0.4,0.3-0.8,0.6-1.3,0.8c-0.4,0.2-0.8,0.3-1.2,0.4
								c-0.6,0.1-1.2,0.2-1.9,0.2c-0.1,0-0.2,0-0.2,0c-0.7,0-1.3-0.1-1.9-0.2c-0.7-0.2-1.4-0.5-1.9-0.9c-0.9-0.7-1.4-1.7-1.4-3
								c0-0.9,0.2-1.9,0.6-3l0.4-1.2l0.1-0.2l0.1-0.1l0.1-0.2l0.1-0.4l0.1-0.2l1.1-2.9c0.1-0.3,0.2-0.6,0.2-0.8
								c0-0.3-0.1-0.6-0.3-0.7c-0.2-0.2-0.4-0.3-0.7-0.3s-0.6,0.1-0.9,0.3c-0.1,0.1-0.2,0.1-0.3,0.1c0,0-0.1,0-0.1,0.1
								c-0.5,0.3-0.8,0.9-1.2,1.7l-0.1,0.3"/>
							<path class="st4" d="M104.6,19c-0.3-0.4-0.5-0.8-0.7-1.2c-0.4-0.8-0.6-1.7-0.6-2.7c0-0.7,0.1-1.4,0.3-2
								c0.3-1,0.7-1.7,1.3-2.2c0.7-0.9,1.4-1.1,2.1-1.1c1.1,0,1.9,0.4,2.5,1.3c0.4,0.5,0.6,1.1,0.8,1.8c0.1,0.3,0.1,0.6,0.2,0.9
								c0,0.1,0,0.1,0,0.2c0,0.2,0,0.4,0,0.6c0,1.1-0.2,2.3-0.5,3.5c-0.1,0.2-0.1,0.4-0.2,0.6c-0.8,2.7-2,5.1-3.7,7.5
								c-0.2,0.3-0.4,0.6-0.6,0.9l-0.1,0.1c0,0,0,0.1-0.1,0.1c-0.1,0.1-0.2,0.2-0.3,0.4c-1.8,2.3-4,4.3-6.3,5.7
								c-2.5,1.6-5,2.4-7.6,2.4c-1.2,0-2.3-0.2-3.2-0.6c-0.9-0.4-1.6-1-2-1.7c-0.5-0.7-0.7-1.5-0.7-2.3c0,0,0,0,0-0.1
								c0-0.4,0.1-0.8,0.2-1.1c0.1-0.5,0.3-0.8,0.6-1.1c0,0,0,0,0.1-0.1s0.2-0.2,0.4-0.3c0.5-0.4,1.1-0.5,1.8-0.5
								c1.1,0,2,0.4,2.7,1.1c0.7,0.8,1.2,1.8,1.4,3c0,0,0,0,0,0.1c0.1,0,0.1,0,0.2,0s0.2,0,0.3,0l0,0c1.3-0.2,2.6-0.8,3.6-1.9
								c-0.2,0-0.4-0.1-0.6-0.1c-0.9-0.2-1.6-0.6-2.1-1.1c-0.6-0.6-1-1.6-1.2-2.9l-0.2-1.6L92.2,23l-0.6-3.9"/>
							<path class="st4" d="M90.5,12.8c0.3-0.4,0.7-0.8,1.1-1.1l0,0c0,0,0,0,0.1-0.1c1.1-0.9,2.4-1.4,3.9-1.4h0.1h0.1
								c0.2,0,0.5,0,0.7,0c0.5,0,1,0.2,1.4,0.4H98c0.1,0,0.2,0.1,0.2,0.1c0.3,0.2,0.5,0.3,0.7,0.5c0.1,0.1,0.2,0.2,0.3,0.3
								c0.1,0.2,0.2,0.4,0.4,0.6c0.1,0.1,0.1,0.2,0.2,0.4c0.4,0.8,0.6,1.8,0.8,2.9c0,0.1,0,0.2,0,0.3l1.1,7.9c0,0.2,0.1,0.4,0.2,0.6
								c0.1,0.1,0.1,0.2,0.2,0.2c0.1,0.1,0.2,0.1,0.3,0.1c0.4,0,0.9-0.4,1.5-1.2c0.6-0.8,1.1-1.9,1.7-3.3l-0.1-0.1
								c-0.3-0.3-0.6-0.6-0.9-0.9"/>
							<path class="st4" d="M91.6,19.2l-0.1-0.6l-0.2-1.2c-0.1-0.5-0.2-0.8-0.3-0.9c0,0,0,0,0-0.1c-0.1-0.2-0.3-0.2-0.5-0.2
								s-0.4,0.1-0.6,0.3c-0.1,0.1-0.2,0.1-0.2,0.2c-0.1,0.1-0.2,0.1-0.3,0.1c-0.2,0-0.3-0.2-0.3-0.6c0-0.1,0-0.2,0-0.2
								c0-0.1,0-0.3,0.1-0.4c0-0.1,0.1-0.3,0.1-0.4c0-0.1,0-0.1,0.1-0.2c0.2-0.8,0.6-1.4,1.1-2.1"/>
							<path class="st4" d="M113.1,10.5c0.3-0.1,0.7-0.1,1.2-0.1h0.9c0-0.1,0-0.1-0.1-0.2c-0.2-0.5-0.2-1.1-0.2-1.6
								c0-0.6,0.1-1.2,0.3-1.9c0.5-1.2,1.4-2.3,2.9-3.1c0.8-0.4,1.7-0.8,2.8-1c0.4-0.1,0.9-0.2,1.4-0.2c0.8-0.1,1.7-0.1,2.6-0.1
								c0.2,0,0.4,0,0.5,0c2.3,0,4,0.4,5.3,1.2s1.9,1.7,1.9,2.8c0,0.8-0.3,1.5-1,1.9c-0.1,0.1-0.1,0.1-0.2,0.2
								c-0.4,0.3-0.9,0.5-1.5,0.6h-0.1c-0.4,0.1-0.9,0.1-1.4,0.1c-1.1,0-2-0.3-2.6-0.8s-0.9-1.2-0.9-2.1c0-0.3,0-0.5,0.2-0.8l0,0
								c0.1-0.2,0.2-0.5,0.3-0.8c-0.3,0-0.5,0-0.8,0.1c-0.4,0.1-0.7,0.2-1,0.4c-0.5,0.3-0.9,0.9-1.1,1.8c-0.1,0.5-0.2,1-0.2,1.5
								c0,0.6,0.1,1,0.3,1.4c0.1,0.2,0.3,0.4,0.6,0.4c0.1,0,0.2,0.1,0.3,0.1h0.1h0.5h1.5h0.1c1.1,0,1.8,0.4,1.8,1.2
								c0,0.1,0,0.2-0.1,0.4c-0.1,0.3-0.2,0.6-0.5,0.9c-0.1,0.1-0.2,0.2-0.4,0.3c-0.4,0.3-1.1,0.4-2,0.4h-0.4h-0.7l-0.3,1.1
								l-0.7,2.2l-1.4,4.7l-1.1,3.7c-0.1,0.3-0.1,0.5-0.1,0.8s0.1,0.6,0.2,0.8c0.1,0.2,0.3,0.3,0.5,0.5s0.3,0.3,0.4,0.4l0,0
								c0.1,0.1,0.1,0.2,0,0.4c-0.1,0.3-0.4,0.5-0.7,0.7c-0.4,0.1-0.9,0.2-1.7,0.2h-8.2c-0.6,0-1.1-0.1-1.4-0.3
								c-0.3-0.2-0.4-0.5-0.3-0.8c0-0.1,0.1-0.1,0.1-0.2c0.1-0.1,0.2-0.2,0.3-0.3c0.1-0.1,0.2-0.2,0.4-0.3c0.1,0,0.1-0.1,0.2-0.1
								l0,0c0.1,0,0.2-0.1,0.2-0.1c0.2-0.1,0.3-0.2,0.4-0.4l0.1-0.1c0.2-0.3,0.4-0.7,0.6-1.3l1.8-6l1-3.2c0.1-0.4,0.2-0.7,0.2-1.1
								c0-0.5-0.1-0.9-0.3-1.1c-0.2-0.3-0.5-0.6-0.9-0.9c-0.3-0.2-0.5-0.4-0.6-0.5S112,12.1,112,12s-0.1-0.2-0.1-0.3
								c0-0.5,0.1-0.8,0.5-1C112.5,10.6,112.8,10.5,113.1,10.5"/>
							<path class="st4" d="M147.1,12.6c1,1.2,1.5,2.6,1.5,4.4c0,0.2,0,0.3,0,0.5c0,0.6-0.1,1.2-0.3,1.9c-0.4,1.5-0.9,2.8-1.7,4
								c-0.3,0.4-0.6,0.9-0.9,1.2c-0.1,0.2-0.3,0.4-0.5,0.5c-0.5,0.6-1.1,1-1.7,1.5c-0.2,0.1-0.4,0.2-0.5,0.4
								c-0.4,0.3-0.8,0.5-1.2,0.7c-0.2,0.1-0.4,0.2-0.5,0.2c0,0-0.1,0-0.1,0.1c-1.8,0.8-3.8,1.2-5.9,1.2c-2.5,0-4.6-0.4-6.1-1.2
								c-0.4-0.2-0.7-0.4-1-0.6c-0.1-0.1-0.2-0.1-0.2-0.2c-0.6-0.5-1.1-1.1-1.5-1.7c-0.5-0.9-0.8-1.9-0.9-3c0-0.2,0-0.4,0-0.7
								c0-0.6,0.1-1.4,0.2-2.2c0-0.1,0-0.2,0-0.3c0.5-1.9,1.3-3.5,2.6-5l0,0c0.2-0.2,0.3-0.4,0.5-0.5c1.2-1.2,2.6-2.2,4.2-2.9
								c1.9-0.8,3.8-1.2,5.8-1.2c0.1,0,0.2,0,0.3,0c2,0,3.7,0.3,5,0.8c0.9,0.3,1.6,0.7,2.2,1.2C146.6,12.1,146.9,12.4,147.1,12.6
								L147.1,12.6z"/>
							<path class="st4" d="M135.9,26c0.3-0.2,0.5-0.5,0.8-1c0,0,0,0,0-0.1s0.1-0.2,0.2-0.3c0.5-1,1.1-2.7,1.9-5
								c0.7-2.3,1.1-4,1.1-5.1c0-0.3,0-0.5-0.1-0.7"/>
							<path class="st4" d="M139.8,13.9c0-0.1-0.1-0.2-0.2-0.3c-0.1-0.4-0.3-0.5-0.6-0.5c-0.5,0-1,0.5-1.6,1.4
								c0,0.1-0.1,0.1-0.1,0.2c-0.3,0.5-0.6,1.2-1,2.2c-0.3,0.8-0.6,1.7-0.9,2.7c-0.8,2.5-1.2,4.2-1.2,5.3c0,0.5,0.1,0.9,0.3,1.1
								s0.4,0.3,0.7,0.3c0.2,0,0.4-0.1,0.6-0.2"/>
							<path class="st4" d="M170.8,12.7c1,1.2,1.5,2.6,1.5,4.4c0,0.5-0.1,1.2-0.2,1.9c0,0.2-0.1,0.4-0.1,0.5c-0.5,2-1.3,3.7-2.6,5.2
								c-1.2,1.5-2.8,2.6-4.6,3.4c-1.2,0.5-2.5,0.9-3.9,1.1c-0.7,0.1-1.3,0.1-2,0.1c-0.4,0-0.8,0-1.2,0s-0.7,0-1-0.1
								c-0.1,0-0.1,0-0.2,0c-0.3,0-0.6-0.1-0.8-0.1s-0.3-0.1-0.5-0.1c-0.9-0.2-1.7-0.5-2.4-0.8c-0.5-0.2-0.9-0.5-1.3-0.8
								c0,0,0,0-0.1-0.1c-1.6-1.3-2.3-3.1-2.3-5.2c0-0.7,0.1-1.6,0.3-2.5c0.3-1,0.6-1.9,1-2.7c0,0,0,0,0-0.1c0.2-0.4,0.4-0.7,0.6-1
								c0.1-0.1,0.2-0.2,0.2-0.3c0.2-0.3,0.4-0.6,0.7-0.8c1.3-1.5,2.9-2.6,4.7-3.4c2-0.8,4-1.2,6.1-1.2c0.7,0,1.4,0,2,0.1
								c0.1,0,0.2,0,0.3,0c0.5,0.1,1,0.1,1.5,0.3l0,0c0.5,0.1,0.9,0.2,1.3,0.4l0,0c0.2,0.1,0.5,0.2,0.7,0.3c0.1,0.1,0.2,0.1,0.3,0.2
								c0.4,0.2,0.7,0.4,1,0.7C170.2,12.1,170.5,12.4,170.8,12.7C170.7,12.7,170.7,12.7,170.8,12.7z"/>
							<path class="st4" d="M162,20.9c0.1-0.4,0.3-0.8,0.4-1.2c0.7-2.3,1.1-4,1.1-5.1c0-0.4-0.1-0.7-0.2-0.9l-0.1-0.1
								c-0.1-0.4-0.3-0.5-0.6-0.5c-0.4,0-0.8,0.3-1.2,0.8c-0.1,0.1-0.1,0.2-0.2,0.2c-0.1,0.1-0.2,0.2-0.2,0.3
								c-0.1,0.1-0.2,0.2-0.2,0.4c0,0.1-0.1,0.1-0.1,0.2c-0.2,0.3-0.4,0.7-0.5,1.2c-0.2,0.6-0.4,1.2-0.7,1.9
								c-0.2,0.4-0.3,0.9-0.5,1.4c-0.8,2.5-1.2,4.2-1.2,5.3c0,0.4,0.1,0.7,0.2,0.9c0,0.1,0.1,0.2,0.1,0.2c0.2,0.2,0.4,0.3,0.7,0.3
								c0.5,0,1-0.4,1.5-1.3c0.4-0.6,0.8-1.5,1.2-2.8c0-0.1,0.1-0.2,0.1-0.2C161.8,21.7,161.9,21.3,162,20.9L162,20.9z"/>
							<path class="st4" d="M190.6,28.7c-0.6,0.2-1.2,0.3-1.9,0.3c-1.2,0-2.2-0.2-3.1-0.7s-1.5-1.1-1.8-1.8
								c-0.2,0.2-0.4,0.5-0.6,0.7c-0.3,0.3-0.7,0.6-1.1,0.9c-0.2,0.1-0.3,0.2-0.5,0.3h-0.1l0,0c-0.8,0.4-1.7,0.6-2.7,0.6
								c-1.1,0-2.1-0.3-3.1-0.8c-0.9-0.6-1.7-1.3-2.3-2.3c-0.1-0.1-0.1-0.2-0.2-0.3c-0.4-0.8-0.6-1.8-0.6-2.8c0-0.1,0-0.2,0-0.4
								c0-0.3,0-0.6,0-0.8c0-0.7,0.1-1.4,0.2-2.1c0.2-1.1,0.5-2.2,1-3.3c0-0.1,0.1-0.1,0.1-0.2v-0.1c0.7-1.6,1.7-2.9,2.8-4
								c0.1-0.1,0.2-0.2,0.3-0.3s0.1-0.1,0.2-0.2c0.1-0.1,0.3-0.2,0.4-0.3c0.2-0.2,0.5-0.3,0.7-0.5c1.2-0.7,2.5-1,4-1
								c0.5,0,1,0,1.4,0.1s0.8,0.2,1.2,0.3c0.3,0.1,0.6,0.2,0.9,0.4c0.1,0,0.2,0.1,0.2,0.1c0.1,0.1,0.2,0.1,0.4,0.2
								c0.1,0.1,0.2,0.1,0.2,0.2c0.1,0.1,0.1,0.1,0.2,0.2l0.1-0.2l1.1-3.8c0-0.1,0.1-0.2,0.1-0.3c0-0.1,0-0.1,0-0.1s0,0,0-0.1
								s0-0.2,0-0.3c0-0.2-0.1-0.3-0.2-0.3c-0.1-0.2-0.3-0.3-0.5-0.5l-0.1-0.1c-0.2-0.2-0.3-0.3-0.4-0.4l0,0l-0.1-0.1c0,0,0,0,0-0.1
								s0-0.2,0.1-0.4c0-0.1,0.1-0.3,0.2-0.4c0.1-0.1,0.1-0.1,0.2-0.2c0.1-0.1,0.1-0.1,0.2-0.2c0.1,0,0.2-0.1,0.3-0.1
								c0.4-0.2,0.8-0.3,1.4-0.5c1.4-0.4,2.8-0.6,4.3-0.6c1.4,0,2.4,0.3,3.1,0.8h0.1c0.4,0.2,0.5,0.5,0.7,0.8
								c0.2,0.4,0.2,0.8,0.2,1.3c0,0.3,0,0.5-0.1,0.8c-0.1,0.2-0.1,0.5-0.2,0.7l-0.2,0.7"/>
							<path class="st4" d="M193.5,24.4c0.1,0,0.1-0.1,0.2-0.2c0.2-0.3,0.4-0.4,0.4-0.4c0.1,0,0.2,0.1,0.3,0.3
								c0.1,0.2,0.1,0.4,0.1,0.6c0,0.1,0,0.1,0,0.2c0,0.6-0.2,1.2-0.8,1.8c-0.4,0.6-1,1.1-1.8,1.5c-0.1,0.1-0.2,0.1-0.3,0.2
								c-0.3,0.1-0.6,0.2-0.9,0.3"/>
							<path class="st4" d="M197.4,7.7l-2,6.6l-1.8,5.8l-1.1,3.6c0,0.2-0.1,0.3-0.1,0.4c0,0.2,0,0.3,0.1,0.4s0.2,0.1,0.4,0.1
								c0.1,0,0.1,0,0.2,0l0,0c0.1,0,0.2-0.1,0.3-0.2"/>
							<path class="st4" d="M185.5,13.1c-0.1,0-0.2,0-0.3,0c-0.2,0-0.4,0-0.5,0.1c-0.1,0-0.1,0-0.1,0.1c-0.5,0.2-0.9,0.7-1.4,1.3
								c-0.7,1-1.2,2.3-1.6,3.7c-0.3,1.1-0.5,2.1-0.6,3.1c0,0.3,0,0.6,0,0.9c0,0.1,0,0.2,0,0.4c0,1,0.4,1.6,1.3,1.6
								c0.4,0,0.6-0.1,0.8-0.4s0.4-0.7,0.6-1.3l2.9-9C186.2,13.3,185.9,13.2,185.5,13.1"/>
						</g>
					</g>
				</g>
			</g>
		</g>
	</g>
</g>
</svg>
